<?xml version="1.0" encoding="UTF-8"?><svg id="b" xmlns="http://www.w3.org/2000/svg" viewBox="0 0 152.26 78.89"><defs><style>.d{fill:#de4500;stroke-width:0px;}</style></defs><g id="c"><path class="d" d="M2.31,5.96h16.03v5.49h-10.02v5.89h7.91v5.45h-7.91v11.01H2.31V5.96Z"/><path class="d" d="M21.39,5.96h14.87l3.74,3.74v10.38l-3.42,3.38,4.1,10.34h-6.24l-3.82-10.02h-3.22v10.02h-6V5.96ZM34,18.4v-7.04h-6.6v7.04h6.6Z"/><path class="d" d="M73.14,30.06V9.7l3.74-3.74h11.41l3.74,3.74v7.67h-6v-5.92h-6.88v16.86h6.88v-5.93h6v7.67l-3.74,3.74h-11.41l-3.74-3.74Z"/><path class="d" d="M100.3,11.56h-5.81v-5.61h17.58v5.61h-5.77v22.23h-6V11.56Z"/><path class="d" d="M118.98,5.96h5.96l8.55,27.83h-6.52l-1.15-4.14h-7.95l-1.15,4.14h-6.28l8.55-27.83ZM124.35,24.33l-2.5-9.15-2.51,9.15h5.01Z"/><path class="d" d="M136,5.96h6v22.27h9.7v5.57h-15.71V5.96Z"/><path class="d" d="M6.56,45.49H.76v-5.61h17.58v5.61h-5.77v22.23h-6v-22.23Z"/><path class="d" d="M21.39,39.88h16.18v5.49h-10.18v5.69h7.99v5.49h-7.99v5.69h10.22v5.49h-16.22v-27.83Z"/><path class="d" d="M41.03,63.98v-20.36l3.74-3.74h11.41l3.74,3.74v7.67h-6v-5.92h-6.88v16.86h6.88v-5.93h6v7.67l-3.74,3.74h-11.41l-3.74-3.74Z"/><path class="d" d="M64.09,39.88h6v11.01h6.88v-11.01h6v27.83h-6v-11.01h-6.88v11.01h-6v-27.83Z"/><path class="d" d="M66.23,33.96h-23.44l-.48-1.4,1.4-3.85h22.52v5.25ZM43.6,32.82h21.48v-2.97h-20.58l-.99,2.72.09.25Z"/><path class="d" d="M63.91,29.37h-16.79v-.94l-.69-.69v-5.47l.85-.24-.54-.54V7.3l.9-.9h15.76l4.12,4.12v7.85l-1.36.73v1.84h1.7l.77.77v5.11l-.5.15v.61l-4.22,1.77ZM48.26,28.38h15.05l3.68-1.54v-.71l.5-.15v-3.78l-.11-.11h-6.54l4.17-1.78v-1.88l1.36-.73v-6.7l-3.46-3.46h-14.81l-.23.23v13.25l.07.07h6.89l-7.27,2.05v4.13l.69.69v.42Z"/><path class="d" d="M61.53,9.6v9.7h-12.13v-9.7h12.13M61.53,8.58h-12.13c-.56,0-1.01.45-1.01,1.01v9.7c0,.56.45,1.01,1.01,1.01h12.13c.56,0,1.01-.45,1.01-1.01v-9.7c0-.56-.45-1.01-1.01-1.01h0Z"/><polyline class="d" points="67.47 20.98 67.78 22.03 63.82 23.23 47 23.23 47.19 22.09 63.65 22.09"/><polygon class="d" points="64.74 28.16 47 28.16 47 27.02 63.6 27.02 63.6 22.73 67.89 21.42 68.22 22.52 64.74 23.57 64.74 28.16"/><rect class="d" x="64.09" y="21.99" width="4.06" height="1.14" transform="translate(-3.7 20.19) rotate(-16.9)"/><rect class="d" x="64.09" y="26.43" width="4.06" height="1.14" transform="translate(-4.99 20.38) rotate(-16.9)"/><path class="d" d="M71.42,30.77l-.95-.63c.13-.2.12-.28-.1-.96-.07-.22-.17-.5-.26-.84-.18-.64-.99-.93-2.47-.89l-.03-1.14c.76-.02,3.09-.07,3.6,1.72.09.31.17.56.25.78.24.71.42,1.27-.03,1.95Z"/><path class="d" d="M69.48,33.98s-.04,0-.06,0c-1.05,0-1.74-.26-2.11-.76-.28-.38-.33-.85-.16-1.4l.02-.06.03-.05c.52-.94,1.15-1.57,1.88-1.87.64-.26,1.33-.25,1.97.03,1.04.46,1.69,1.54,1.41,2.36v.03c-.28.8-.86,1.72-2.98,1.72ZM68.23,32.21c-.04.16-.04.27,0,.34.1.14.47.29,1.19.29.02,0,.03,0,.05,0,1.58,0,1.77-.59,1.89-.94v-.04c.06-.16-.19-.69-.78-.95-.83-.37-1.69.11-2.36,1.3Z"/><path class="d" d="M69.43,33.98v-1.14c.16,0,.33-.27.54-.66.33-.59.89-1.59,2.13-1.17l-.37,1.08c-.26-.09-.36-.08-.77.65-.29.52-.7,1.24-1.54,1.24Z"/><polygon class="d" points="63.63 21.59 63.1 21.59 63.1 6.98 63.21 6.98 63.21 21.47 63.63 21.47 63.63 21.59"/><polygon class="d" points="66.95 10.77 66.95 18.05 65.58 18.78 65.58 20.7 63.63 21.53 63.16 21.53 63.16 6.98 66.95 10.77"/><polygon class="d" points="68.06 21.97 68.06 26.41 67.56 26.56 64.17 27.59 64.17 23.15 68.06 21.97"/><polyline class="d" points="66.23 30.92 66.8 30.92 66.23 33.96"/></g></svg>