<?xml version="1.0" encoding="UTF-8"?><svg id="b" xmlns="http://www.w3.org/2000/svg" viewBox="0 0 807.02 670.97"><defs><style>.d{fill:#ffffcf;}.d,.e{stroke-width:0px;}.e{fill:#eeca29;}</style></defs><g id="c"><path class="e" d="M489.86,414.32l-2.71-5.49c-.82-1.63-1.89-2.38-2.69-1.94l-8.29,4.5c-2.68-4.67-5.43-9.32-8.42-13.8l7.8-5.29c.75-.51.58-1.8-.49-3.29l-3.63-4.96c-1.1-1.47-2.24-1.97-2.95-1.41l-18.47,14.49c-.71.56-.63,1.68.3,2.92l3.08,4.2c.91,1.26,1.98,1.72,2.74,1.22l7.39-5.02c2.89,4.34,5.55,8.85,8.15,13.37l-7.85,4.26c-.8.44-.88,1.61-.19,2.99l2.3,4.66c.67,1.39,1.62,1.98,2.45,1.6l21.35-9.75c.83-.38.91-1.62.12-3.26Z"/><path class="e" d="M455.33,364.98c-3.65-3.52-7.12-5.49-9.88-5.83l-1.39-3.3c-.77-1.81-2.46-3.26-4.39-3.63l-2.49-.47c-1.92-.35-2.5.69-1.7,2.47l1.08,2.44-4.72,6.02c-1.27,1.63-1.19,3.72.1,6.14.64,1.22,1.6,2.51,2.82,3.91,1.18,1.46,2.64,3.01,4.37,4.67,1.67,1.59,3.22,2.92,4.65,3.99,1.43,1.08,2.65,1.98,3.83,2.54,2.32,1.16,4.23,1.19,5.62-.01l.23-.2c.4-.35.32-.9-.31-1.62-1.66-1.84-3.26-3.75-5.03-5.49-.63-.62-1.11-.71-1.43-.39l-.19.19c-.81.8-2.15.16-4.46-2.05-2.36-2.25-2.99-3.64-2.05-4.69l1.72-1.92c1.35,1.67,2.99,3.42,4.91,5.28,3.47,3.25,6.06,5.56,8.29,6.65,2.23,1.09,4.04,1.02,5.49-.23l.37-.32c1.38-1.18,1.59-3.11.68-5.59-.91-2.47-2.88-5.53-6.12-8.57ZM452.99,371.27l-.27.26c-.95.93-2.7.2-5.32-2.31-1.31-1.25-2.48-2.56-3.55-3.87l1.14-1.27c.9-1.02,3.25-.2,5.69,2.13,2.48,2.38,3.27,4.12,2.32,5.04Z"/><path class="e" d="M418.54,337.2c-9.33-5.33-16.29-5.66-17.97-1.73l-.34.76c-.24.55.3,1.25,1.32,1.7,2.17.99,4.37,1.91,6.45,3.08.93.49,1.72.49,2-.05l.28-.54c.71-1.37,2.46-1.32,6.05.67,3.52,1.95,4.5,3.65,3.46,5.34l-2.8,4.59c-1.04,1.69-2.93,1.71-6.21-.11-3.34-1.85-4.28-3.23-3.55-4.65l.21-.4c.28-.54-.15-1.2-1.06-1.68-2.04-1.14-4.19-2.04-6.32-3.01-1-.45-1.86-.37-2.11.18l-.29.66c-1.71,4.01,2.76,8.08,10.93,12.76,4.35,2.3,7.93,3.99,10.98,4.4,3.03.43,5.43-.28,6.88-2.32l2.69-3.8c1.43-2,1.2-4.51-.6-7.3-1.81-2.76-5.1-5.92-10.02-8.55Z"/><path class="e" d="M393.51,326l-6.12-2.1c-1.54-.51-2.74-.35-3,.49l-6.94,22.19c-.39,1.27.71,2.54,2.76,3.24l2.7.93c2.05.71,3.71.39,4.19-.82l8.45-21.66c.32-.82-.51-1.72-2.04-2.25ZM364.49,318.05c-3.22.43-4.41,2.06-2.54,3.92,2.45,2.37,4.75,4.96,6.95,7.55-2.94,1.29-5.78,2.57-8.58,4.12-1.2.65-1.53,1.06-1.62,1.58-.14.82.62,1.44,2.3,1.71,1.36.19,2.69.52,4.03.82,1.78.41,2.76.22,3.98-.35,2.62-1.24,5.31-2.44,8.07-3.6,1.44-.59,2.1-1.33,2.36-2.22.29-.97.08-1.99-.88-3.23-1.97-2.51-4.04-5.02-6.21-7.52-1.65-1.88-5.03-3.19-7.87-2.79Z"/><path class="e" d="M343.46,315.01c-5.08-.3-9.01.49-11.32,2.16l-3.23-1.59c-1.78-.86-4.01-.85-5.72.14l-2.19,1.28c-1.68,1-1.42,2.16.35,2.98l2.43,1.14.42,7.64c.12,2.06,1.56,3.58,4.14,4.57,2.59,1.02,6.3,1.34,11.11,1.68,4.61.27,8.21-.07,10.73-.7,2.51-.63,3.98-1.85,4.23-3.67l.04-.3c.07-.53-.36-.89-1.3-1.03l-3.71-.49-3.73-.27c-.88-.06-1.31.18-1.34.63l-.02.26c-.08,1.14-1.52,1.53-4.73,1.36-3.27-.16-4.67-.81-4.65-2.21l.03-2.57c2.13.38,4.52.64,7.19.79,4.77.26,8.27.07,10.67-.49,2.4-.62,3.72-1.86,3.99-3.75l.07-.49c.26-1.8-.85-3.4-3.17-4.69-2.31-1.35-5.85-2.12-10.3-2.38ZM345.86,321.3l-.03.38c-.11,1.32-1.91,1.91-5.54,1.72-1.82-.09-3.56-.32-5.24-.61l.02-1.7c0-1.37,2.32-2.27,5.71-2.1,3.45.18,5.19.99,5.09,2.31Z"/><path class="e" d="M301.96,317.85l-2.3.37c-.59.1-.83.56-.71,1.3l.39,2.43c.1.64.51.95,1.01.87l1.35-.22c.85-.14,1.23.19,1.4,1.19l1.45,8.59-2.58.42c-.52.08-.8.55-.72,1.11l.4,2.51c.09.56.51.91,1.04.83l2.64-.43.51,2.99c.11.65.37,1.15.74,1.46.19.15.4.26.63.32.12.03.24.05.37.05.19,0,.47-.03.72-.07l3.25-.45c2.06-.28,3.28-1.23,3.13-2.54l-.37-3.01,3.37-.41c1.04-.12,1.71-.61,1.67-1.18l-.22-2.53c-.05-.57-.82-.9-1.89-.78l-3.47.42-1.1-8.98c-.24-2.01-1.18-3.34-3.19-4-1-.33-2.27-.5-3.85-.5-.39,0-.81.01-1.24.03-.38.01-1.03.07-1.11.06-.41.01-.85.05-1.32.13Z"/><path class="e" d="M295.17,318.96l-2.63.35c-.66.09-1.03.68-.92,1.54l1.43,10.43c.27,1.99-.46,3.2-2.12,3.43-1.67.25-2.65-.77-2.89-2.76l-1.26-10.45c-.1-.86-.57-1.35-1.24-1.28l-2.52.27c-.67.07-1.02.65-.93,1.51l1.08,10.55c.49,4.9,3.2,7.42,6.93,7.01,1.66-.23,2.95-.98,3.79-2.21l.89,6.53c.18,1.31,1.05,2.07,2.19,1.92l1.5-.2c1.13-.14,1.79-1.16,1.58-2.46l-3.52-22.98c-.13-.86-.68-1.31-1.36-1.2Z"/><path class="e" d="M272.06,320.98c-4.18.15-6.65,3.03-6.54,8.13l.11,4.5c.09,5.09,2.96,7.7,7.65,7.51,4.72-.35,7.35-3.34,6.87-8.38l-.41-4.49c-.47-5.1-3.37-7.6-7.68-7.28ZM272.32,325.36c1.62-.1,2.54.83,2.67,2.76l.38,5.48c.14,1.88-.67,3-2.36,3.1-1.69.07-2.61-.92-2.7-2.81l-.26-5.48c-.09-1.93.69-2.99,2.26-3.05Z"/><path class="e" d="M261.34,321.74l-2.26.03c-.6.02-.94.5-.96,1.38l-.18,10.52c-.03,2.01-.82,3.07-2.27,3.02-1.43-.05-2.12-1.17-2.03-3.17l.46-10.52c.04-.87-.29-1.41-.86-1.43-.73,0-1.44-.05-2.12-.12-.55-.05-.92.45-.98,1.32l-.74,10.57c-.37,4.9,1.62,7.94,5.22,8,1.92.05,3.42-.76,4.35-2.51l1.33,1.8c.69.9,1.59.93,2.28.02l.88-1.14c.68-.87.59-2.08-.09-2.99l-.94-1.28-.09-12.12c0-.87-.37-1.4-.97-1.39Z"/><path class="d" d="M367.15,472.42l-.42-.9c-.18-.4-.62-.43-1.66,0-1.65.66-3.28,1.35-4.89,2.07-.28-.42-.54-.84-.78-1.28l-.35-.67-.48-.58c1.32-1.14,2.62-2.3,3.91-3.48.82-.74,1.01-1.17.76-1.53l-.65-.95c-.32-.33-.91-.13-1.61.46-.29.24-.61.57-1.16,1.14-2.36,2.49-4.89,4.96-7.5,7.34-2.6,2.37-5.26,4.64-7.97,6.79-1.51,1.2-2,1.66-1.81,1.83.05.17.12.33.2.48.13.21.79-.06,2.54-.93,6.29-3.13,12.6-5.71,19.3-7.96.76-.26,1.19-.41,1.54-.57.82-.38,1.23-.83,1.03-1.24ZM355.76,475.66c-3.17,1.52-6.28,3.14-9.31,4.85,2.85-2.02,5.75-4.21,8.41-6.37.36.47.56,1.05.9,1.53Z"/><path class="d" d="M360.65,462.91c-.26-.39-.65-.65-.98-.96-.29-.26-.9,0-1.52.65l-16.25,16.94c-.63.66-.99,1.15-.89,1.22.11.1.28.13.32.29.06.11.56-.23,1.23-.84l17.38-15.78c.67-.61.95-1.21.71-1.52Z"/><path class="d" d="M407.16,450.8c-.44-.9-.84-1.81-1.4-2.65-.44-.73-1.26-.9-2.04-.44l-20.27,11.85c-.78.46-1.1,1.1-.8,1.58.4.56.66,1.2.95,1.82.25.52.96.6,1.78.2l21.03-10.42c.82-.4,1.11-1.18.74-1.94Z"/><path class="d" d="M401.52,441.41l-1.5-2.05c-.5-.68-1.26-.77-1.98-.21l-12.32,9.44c.7-1.17,1.39-2.36,2.06-3.57.64-1.19,1.24-2.38,1.83-3.6,1.18-2.44,2.3-4.97,3.34-7.59.58-1.52.63-2.4-.42-3.35l-1.53-1.46c-.97-.93-2.17-.87-3.14.19l-15.38,16.72c-.61.67-.74,1.34-.32,1.74l1.27,1.19c.42.39,1.11.24,1.76-.38l11.1-10.63c-2.16,5.08-4.6,9.82-7.3,14.22-.85,1.35-1.01,1.99-.45,2.77l.9,1.22c.56.75,1.63.7,2.82-.09l18.86-12.66c.76-.5.91-1.25.43-1.9Z"/><path class="d" d="M384.48,423.35l-2.31-1.86c-.73-.5-1.55-.31-2.08.44l-5.04,7.15-2.72-1.81c-.9-.62-1.79-1.24-2.77-1.71-1.12-.6-2.24-.23-2.97,1.14l-.07.13c-.72,1.33-.48,2.46.56,3.02.92.44,1.75,1.02,2.58,1.6l2.53,1.68-3.67,5.2c-.99-.64-1.97-1.3-2.95-1.97l-.73-.5-.78-.41-1.56-.84c-.57-.31-1.08-.03-1.5.77l-.99,1.88c-.44.84-.4,1.38.12,1.67l2.01,1.07c.65.39,1.26.86,1.89,1.27,1.26.85,2.59,1.61,3.72,2.65.65.53,1.6.21,2.44-.81l14.43-17.7c.58-.7.55-1.5-.14-2.05Z"/><path class="d" d="M367.42,412.93l-2.74-1.2c-.78-.34-1.51,0-1.84.84l-8.58,21.85c-.33.85-.2,1.57.32,1.81l1.87.82c.53.23,1.14-.17,1.54-.99l10.08-21.2c.39-.82.14-1.59-.64-1.93Z"/><path class="d" d="M357.2,409.03l-1.2-.41-1.23-.29c-.82-.2-1.48.23-1.7,1.11l-3.82,15.05c-.35-2.66-.81-5.35-1.38-8.07l-.45-2.05-.51-1.97c-.35-1.31-.73-2.64-1.14-3.96-.48-1.56-1.01-2.14-2.41-2.35-.7-.09-1.39-.24-2.09-.29-1.34-.07-2.25.75-2.35,2.18l-1.67,22.66c-.06.91.25,1.49.83,1.51.58-.01,1.15.09,1.72.19.57.09,1-.42,1.13-1.32l2.1-15.23c.73,2.62,1.36,5.22,1.88,7.79.53,2.52.9,5.3,1.19,7.89.17,1.56.44,2.14,1.38,2.35.49.13.99.18,1.47.36.88.32,1.66-.33,2.11-1.7l6.96-21.63c.28-.86-.05-1.57-.81-1.84Z"/><path class="d" d="M332.51,405.45l-2.99.1c-.85.03-1.37.65-1.32,1.56l1.38,23.44c.06.91.48,1.51,1.05,1.49l2.04-.08c.57-.03.96-.66.98-1.57l.26-23.48c.01-.91-.54-1.49-1.39-1.46Z"/><path class="d" d="M316.64,406.97l-3.24.52c-.96.16-1.45.85-1.31,1.75l3.12,19.82c-2.12.36-4.25.68-6.41.96-.98.13-1.45.69-1.32,1.6l.29,2.1c.13.94.73,1.31,1.72,1.18,3.33-.42,6.56-1,9.82-1.51l2.44-.4c.79-.13,1.76-.3,2.09-.31.96-.1,1.91-.21,2.86-.34.57-.08.83-.57.75-1.52l-.2-2.11c-.09-.91-.47-1.35-1.09-1.26l-2.03.25-1.02.12-.51.05c-.16.01-.5.08-.74.11l-3.39-19.78c-.15-.9-.87-1.39-1.84-1.24Z"/><path class="d" d="M298.89,409.6c-5.03.54-10.05,1.19-15.12,1.52-.94.07-1.42.57-1.35,1.51l.15,2.04c.07.94.62,1.36,1.58,1.28,3.74-.25,7.44-.66,11.14-1.07l.69,6.13c-2.8.28-5.56.66-8.38.86-1.62.13-2.61,1.08-2.49,2.59v.15c.13,1.51,1.27,2.29,2.92,2.17,2.86-.21,5.66-.58,8.5-.87l.64,5.68c-3.87.43-7.75.86-11.69,1.13-1.01.08-1.52.57-1.45,1.52l.15,2.04c.07.94.66,1.35,1.68,1.27,5.51-.36,10.88-1.05,16.29-1.64,1.45-.2,2.25-1.15,2.08-2.46l-2.87-22c-.17-1.31-1.13-2.02-2.49-1.84Z"/><path class="d" d="M441.82,419.13c-1.14-1.96-2.53-3.48-3.85-4.73-1.33-1.24-2.65-2.16-3.93-2.74-2.54-1.17-4.92-.92-6.95.73l-3.85,3.13c-.91.74-.86,1.64-.01,2.81,1.85,2.53,3.77,5.03,5.52,7.64.71,1.15,1.68,1.51,2.54.96l1.31-.83c.83-.52.93-1.6.19-2.8-.74-1.22-1.64-2.33-2.46-3.5l1.45-1.03c.96-.68,1.91-.84,2.93-.4,1.02.44,2.13,1.45,3.17,3.22,2.18,3.55,2.02,6.19-.35,7.53l-8.51,4.88c-2.31,1.31-4.44.46-6.24-2.49-.46-.74-.77-1.41-1-2.01-.25-.58-.38-1.11-.38-1.59-.01-.96.46-1.75,1.39-2.4l.37-.26c.46-.33.49-.87.08-1.44l-3.12-4.23c-.38-.54-1.01-.63-1.44-.28l-.41.33c-1.99,1.62-2.83,3.76-2.71,6.2.07,1.22.39,2.51.96,3.87.57,1.36,1.43,2.75,2.33,4.34.99,1.63,2.05,2.98,3.18,4.08.56.55,1.14,1.03,1.74,1.45.55.44,1.12.81,1.7,1.11,2.33,1.2,4.94,1.3,7.6.02l8.14-3.94c2.66-1.28,4.11-3.55,4.3-6.64.05-.77.02-1.6-.09-2.46-.15-.84-.39-1.73-.71-2.65-.63-1.84-1.59-3.82-2.86-5.89Z"/><path class="d" d="M429.18,403.27l-2.2-2.48c-.96-1.11-1.82-1.34-2.91-.87-1.76.72-3.5,1.46-5.22,2.22-2.79-2.65-5.5-5.38-8.57-7.71.58-1.77,1.14-3.55,1.68-5.35.35-1.13,0-1.93-1.15-2.84-1.01-.8-2.01-1.6-3.09-2.3-1.26-.86-2.22-.81-2.73-.06-.21.31-.34.78-.53,1.61-1.49,7.29-3.59,14.58-6.04,21.52-.69,1.92-.42,3.01,1.19,4.31,1.14.9,2.13,1.97,3.21,2.95,1.5,1.43,2.62,1.57,4.47.66,1.67-.8,3.36-1.59,5.08-2.35,1.68-.73,3.38-1.44,5.1-2.12,3.44-1.37,6.95-2.64,10.54-3.82.81-.28,1.26-.45,1.55-.7.69-.59.62-1.53-.39-2.68ZM414.22,404.42c-3.35,1.63-6.63,3.34-9.82,5.13.74-1.7,1.47-3.43,2.16-5.15.67-1.7,1.32-3.43,1.95-5.17l1.5,1.22c.48.42.94.87,1.41,1.31l2.8,2.66Z"/><path class="d" d="M399.84,378.7c-1.09-.66-2.21-1.25-3.32-1.88-1.15-.63-2.14-.53-2.57.27l-7.66,14.02c-.23-3.51-.55-7.17-1.09-10.72-.22-1.3-.71-1.98-1.79-2.46-1.27-.56-2.01-.43-3.14.27-3.08,1.98-5.97,3.9-8.83,6.18l5.55-15.06c.32-.85-.26-1.65-1.5-2.08l-3.56-1.2c-1.24-.41-2.18-.12-2.44.75l-6.52,21.76c-.4,1.34.33,2.54,1.88,3.06l2.46.83c1.71.6,2.46.43,3.76-.58,2.73-2.13,5.6-4.2,8.61-6.2.5,3.54.86,7.01.99,10.6.07,1.68.46,2.32,2.05,3.19l2.46,1.36c1.47.82,2.73.68,3.5-.53l12.12-19.22c.49-.77.11-1.7-.94-2.38Z"/><path class="d" d="M359.29,362.7c-6.89-1.37-13.87-2.33-20.9-2.57-1.31-.07-2.03.35-2.05,1.3l-.05,2.04c-.02.95.64,1.43,1.9,1.5l7.35.45c2.43.31,4.86.67,7.29,1.04l-.99,6.09c-3.42-.49-6.82-1.1-10.28-1.21-1.99-.12-3.33.68-3.39,2.19v.15c-.07,1.51,1.13,2.45,3.03,2.56,3.31.09,6.58.68,9.85,1.16l-.92,5.64-6.3-.91-6.35-.38c-1.09-.06-1.69.37-1.71,1.31l-.05,2.04c-.02.95.53,1.43,1.56,1.49,5.58.17,11.12.96,16.59,2.03,1.47.35,2.58-.24,2.89-1.53l5.06-21.6c.31-1.29-.67-2.38-2.53-2.81Z"/><path class="d" d="M317.9,360.49c-2.42.3-4.52.76-6.28,1.36-.5.16-.73.29-.98.44-.25.15-.49.31-.71.48-.45.33-.84.7-1.19,1.1-1.36,1.6-1.86,3.72-1.46,6.26l.14.86c.35,2.17,1.09,3.54,2.24,4.41.57.43,1.25.74,2.03.96.39.11.8.19,1.25.26.22.03.45.06.68.09.3.02.61.04.93.05l7.13.35c2.06.11,3.13.52,3.24,2.02l.04.6c.15,2.2-.95,3.1-4.46,3.55-3.47.44-4.81-.22-5.15-2.24l-.13-.78c-.07-.56-.62-.88-1.26-.78l-3.8.62c-.58.09-.85.52-.74,1.16l.13.82c.39,2.43,1.39,4.1,3.15,5.02.9.46,1.9.73,3.27.83,1.47.1,3.16.03,5.11-.22,1.87-.2,3.49-.69,4.9-1.06,1.41-.4,2.59-.97,3.55-1.68,1.91-1.42,2.94-3.45,2.93-6.01v-.83c0-4.46-2.8-5.92-8.04-6.57-2.47-.22-4.96-.28-7.47-.39-2.24-.09-3.37-.39-3.62-1.89l-.1-.63c-.36-2.16.96-3.2,5.26-3.74,2.15-.27,3.61-.22,4.55.15.94.39,1.36,1.13,1.43,2.14l.06.87c.04.6.52.92,1.28.89l5.43-.19c.76-.02,1.27-.41,1.26-1.02v-.98c-.01-2.46-1.06-4.25-3.44-5.36-2.37-1.09-6.08-1.67-11.15-.93Z"/><path class="e" d="M236.87,319.73l-1.85-.31c-.55-.09-1.03.45-1.2,1.33l-1.88,9.24c-1.83-.45-3.67-.88-5.51-1.28l2.32-9.14c.23-.9.01-1.51-.49-1.68l-1.72-.52c-.51-.15-.99.34-1.24,1.22l-6.54,22.55c-.25.87-.04,1.56.61,1.75l2.16.64c.64.21,1.23-.33,1.44-1.2l2.2-8.66c1.92.42,3.84.86,5.75,1.33l-1.78,8.76c-.19.9.13,1.56.81,1.68l2.28.39c.68.12,1.19-.41,1.34-1.3l3.95-23.14c.15-.9-.08-1.55-.63-1.65Z"/><path class="e" d="M219.79,314.74c-.69-.24-1.38-.21-2.05.02-.66.2-1.3.59-1.91,1.18l-.25-1.92c-.13-1.04-.67-1.35-1.5-.7l-1.08.83c-.84.64-1.28,1.73-1.15,2.76l.19,1.42-2.99,7.04c-.81,1.9-.97,3.55-.49,4.92.24.68.65,1.3,1.2,1.83.28.27.6.52.95.74.37.2.77.37,1.22.52,3.41,1.16,5.84-.06,6.94-3.57l.09-.29c.16-.5.1-.85-.22-.96l-2.47-.88c-.29-.1-.52.1-.67.53l-.09.25c-.38,1.07-1.02,1.37-2.13.99-1.14-.36-1.4-1.13-.89-2.45l.93-2.4c.56.58,1.3.93,2.17,1.24,3.11,1.07,5.06-.15,6.21-3.85l.15-.47c1.05-3.42.21-5.95-2.18-6.77ZM218.54,320.8l-.12.36c-.44,1.25-1.21,1.74-2.34,1.36-.56-.21-1.07-.48-1.48-.93l.61-1.59c.49-1.25,1.5-1.93,2.48-1.61.99.34,1.29,1.16.85,2.41Z"/><path class="e" d="M207.55,309.46c-2.74-1.49-5.5-.56-7.68,3.19l-.42.72c-.3.52-.28,1.01.05,1.19l2.09,1.17c.31.17.69-.04.97-.58l.29-.53c.74-1.39,1.51-1.74,2.65-1.19,1.13.52,1.19,1.61.32,3.37l-2.38,4.82c-.89,1.8-1.85,2.43-3.1,1.84-1.27-.61-1.35-1.66-.6-3.04l.21-.4c.28-.53.25-.99-.06-1.17l-2.15-1.21c-.34-.19-.78.05-1.08.57l-.36.62c-2.16,3.71-1.28,6.77,2.01,8.55,3.51,1.65,6.75.17,8.78-4.4l1.92-4.24c2-4.49,1.42-7.96-1.48-9.3Z"/><path class="e" d="M200.27,305.87l-1.6-1.01c-.4-.25-.96.03-1.44.76l-12.65,19.51c-.72,1.11-.67,2.17.13,2.67l1.05.66c.8.5,1.77.09,2.45-1.04l11.99-19.92c.45-.75.45-1.38.06-1.63ZM193.04,301.13c-1.23.23-2.53,1.48-2.96,3.11-.57,2.15-.99,4.25-1.41,6.4-1.81,1.07-3.7,2.16-5.52,3.13-.8.43-1.15.74-1.47,1.16-.5.67-.54,1.25-.04,1.65.39.33.85.61,1.27.91.58.39,1.11.25,1.91-.2,1.74-1.01,3.44-2.03,5.11-3.08.86-.54,1.51-1.26,2.01-2.02.56-.85.9-1.66,1.1-2.69.4-2.08.84-4.14,1.31-6.16.37-1.56-.24-2.41-1.32-2.21Z"/><path class="e" d="M188.81,297.09c-1.01-.89-2.51-.8-3.97-.11l.5-1.83c.28-.99-.09-1.43-1.06-1.09l-1.26.44c-.98.34-1.78,1.19-2.05,2.18l-.37,1.36-5.27,5.54c-1.42,1.49-2.18,2.96-2.25,4.37-.08,1.42.54,2.79,1.95,3.92,2.59,2.28,5.4,1.8,7.62-1.11l.19-.24c.32-.42.38-.76.12-.95-.68-.51-1.37-1.01-1.98-1.57-.22-.19-.5-.08-.79.27l-.17.2c-.72.88-1.41.93-2.27.21-.88-.74-.85-1.5.08-2.55l1.71-1.93c.33.67.84,1.28,1.5,1.85.59.5,1.18.86,1.75,1.05.6.18,1.21.18,1.8.04,1.18-.29,2.33-1.2,3.49-2.71l.3-.39c1.11-1.44,1.66-2.81,1.71-3.98.03-.59-.1-1.12-.31-1.62-.2-.51-.52-.96-.98-1.35ZM185.49,302.32l-.24.29c-.84,1.02-1.71,1.22-2.57.49-.43-.36-.75-.82-1-1.32l1.13-1.28c.91-1.02,2.07-1.34,2.81-.72.76.64.71,1.5-.13,2.53Z"/><path class="e" d="M180.27,289.53l-.9-1.04c-.23-.26-.67-.13-1.25.36l-1.87,1.6c-.49.42-.63.83-.42,1.06l.56.64c.35.4.19.81-.57,1.49l-6.46,5.84-1.16-1.33c-.23-.26-.71-.17-1.14.2l-1.92,1.65c-.43.37-.58.83-.33,1.11l1.23,1.42-2.25,2.03c-.97.88-1.27,1.83-.69,2.41l.9.91c.57.58,1.5.4,2.44-.53l2.17-2.12.84.88c.26.27.73.16,1.13-.24l1.78-1.81c.4-.4.52-.88.28-1.14l-.8-.84,6.47-6.32c2.92-2.85,3.46-4.56,1.95-6.24Z"/><path class="e" d="M177.65,286.47l-.99-1.26c-.25-.31-.85-.2-1.54.33l-8.37,6.38c-1.59,1.22-2.88,1.42-3.51.47-.66-.94-.11-2.06,1.53-3.21l8.62-6.04c.71-.5,1-1.01.76-1.34-.33-.41-.59-.85-.85-1.28-.21-.34-.79-.26-1.52.21l-8.92,5.73c-4.14,2.62-5.65,5.67-4,7.87.7.96,1.66,1.46,3.01,1.32l-5.24,3.99c-1.06.8-1.39,1.77-.85,2.45l.7.89c.54.68,1.55.58,2.57-.27l17.92-14.81c.67-.56.92-1.11.67-1.43Z"/><path class="e" d="M170.28,274.51c-.56-1.21-1.71-1.82-3.21-1.96-1.48-.14-3.45.26-5.78,1.3l-4.12,1.83c-2.32,1.03-3.91,2.27-4.75,3.69-.82,1.41-.75,2.94,0,4.52.78,1.54,2.16,2.39,3.73,2.55,1.59.16,3.52-.44,5.7-1.76l3.85-2.34c2.17-1.32,3.62-2.72,4.4-4.06.8-1.35.78-2.57.19-3.77ZM166.39,276.54c.44.96-.11,1.88-1.82,2.82l-4.81,2.65c-1.63.91-2.91.9-3.43-.19-.54-1.11.09-2.12,1.79-2.96l4.92-2.44c1.73-.85,2.9-.82,3.35.11Z"/><path class="e" d="M166.99,268.43l-.52-1.39c-.14-.36-.73-.4-1.55-.11l-9.9,3.57c-1.87.68-3.18.53-3.48-.54-.32-1.04.55-1.91,2.46-2.51l10.04-3.16c.83-.26,1.26-.65,1.14-1.02-.18-.46-.31-.94-.41-1.42-.09-.38-.67-.47-1.51-.25l-10.23,2.76c-4.76,1.25-7.07,3.73-6.15,6.4.41,1.45,1.72,2.24,3.6,2.27l-1.34,1.6c-.66.82-.47,1.49.57,1.64l1.33.18c1.02.14,2.11-.39,2.74-1.19l.9-1.11,11.22-4.58c.8-.33,1.22-.76,1.09-1.13Z"/><path class="d" d="M211.86,453.17l-2.92-.52c-1.29-.23-2.04.05-2.65,1.03l-3.02,4.67c-3.67-.84-7.34-1.65-10.99-2.58l-.54-5.58c-.1-1.17-.65-1.76-1.93-2.12l-3.36-.97c-1.32-.38-2.15-.04-2.42.83-.11.36-.1.84-.05,1.68.61,7.42,1.45,14.9,2.53,22.43.28,2.08,1.22,3.09,3.76,3.67l5.35,1.24c2.54.58,3.81.17,4.99-1.55,4.32-6.12,8.41-12.56,12.29-18.9.43-.73.65-1.15.72-1.53.16-.9-.42-1.57-1.76-1.81ZM200.55,462.7c-2.06,3.12-4.17,6.22-6.33,9.31-.55-3.72-1.04-7.42-1.48-11.12l7.8,1.81Z"/><path class="d" d="M177.98,444.41l-3.97-1.39c-1.12-.39-2.07-.09-2.39.76l-8.09,22.04c-.31.85.31,1.72,1.55,2.15l4.41,1.54c1.25.43,2.27.14,2.55-.72l7.33-22.3c.28-.86-.28-1.7-1.4-2.09Z"/><path class="d" d="M218.01,408.12c-1.11-.18-2.22-.4-3.32-.67-.93-.21-1.68.23-1.88,1.12l-5.04,22.93c-.2.89.38,1.64,1.44,1.88,1.25.3,2.5.55,3.76.76,1.06.19,1.88-.28,2.05-1.17l4.29-23.08c.17-.89-.35-1.6-1.29-1.77Z"/><path class="d" d="M205.91,405.41l-2.76-.79c-.92-.26-1.65.12-1.9.99l-4.24,14.93c-1.58-5.71-3.01-11.2-4.12-16.97-.33-1.68-.81-2.37-2.32-2.9l-2.26-.79c-1.43-.5-2.64,0-3.16,1.34l-8.05,21.25c-.32.85.12,1.61,1.15,1.97l3.09,1.09c1.03.36,1.86.05,2.15-.81l4.99-14.54c.57,2.83,1.2,5.67,1.88,8.53.69,2.8,1.45,5.59,2.25,8.41.49,1.68,1.1,2.37,2.84,2.87l2.75.79c1.7.51,2.94-.17,3.28-1.55l5.53-22.03c.22-.88-.23-1.56-1.12-1.78Z"/><path class="d" d="M179.2,396.29l-3.1-1.29c-.93-.37-1.74-.12-2.12.71l-3.61,7.96-7.98-3.86c-1.56-.74-2.93-.48-3.64.88l-.07.13c-.71,1.35-.13,2.65,1.47,3.41l8.18,3.96-2.63,5.79c-3.61-1.74-7.23-3.47-10.81-5.26-.97-.53-1.66-.36-2.09.44l-1,1.87c-.45.84-.18,1.5.81,2.05,2.55,1.29,5.14,2.52,7.72,3.78l3.87,1.86c1.31.58,2.64,1.12,3.97,1.68,1.47.61,2.71.23,3.22-1l8.72-21.1c.35-.84.02-1.63-.9-2.01Z"/><path class="d" d="M158.85,386.24l-2.96-1.65c-.84-.45-1.69-.29-2.16.49l-12.09,20.12c-.47.78-.17,1.7.78,2.22l3.35,1.88c.95.53,1.87.35,2.32-.44l11.42-20.51c.44-.79.18-1.63-.66-2.1Z"/><path class="d" d="M148.22,379.83c-.82-.49-1.6-1.06-2.39-1.61-.79-.55-1.6-.42-2.12.33l-8.8,12.79c.3-5.9.76-11.63,1.53-17.42.22-1.69-.02-2.5-1.29-3.47l-1.9-1.46c-1.17-.97-2.45-.93-3.38.18l-14.49,17.49c-.58.7-.42,1.58.43,2.29.83.73,1.73,1.36,2.59,2.05.87.67,1.76.64,2.32-.08l9.41-12.15c-.71,5.72-1.25,11.58-1.5,17.39-.07,1.75.29,2.6,1.79,3.64l2.36,1.63c1.5.95,2.85.77,3.63-.44l12.28-19.11c.49-.77.29-1.56-.49-2.05Z"/><path class="d" d="M125.68,362.5l-2.49-2.33c-.7-.66-1.59-.66-2.22,0l-16.22,16.97c-.63.66-.51,1.6.3,2.36l2.87,2.68c.81.77,1.77.79,2.37.11l15.56-17.57c.6-.68.51-1.55-.18-2.21Z"/><path class="d" d="M113.01,349.8l-2.23-2.54c-.66-.76-1.52-.82-2.21-.23l-15.31,12.97c-1.59-1.78-3.01-3.72-4.52-5.58-.68-.86-1.43-1.02-2.15-.47l-1.68,1.29c-.75.58-.74,1.33-.04,2.21l3.48,4.39,3.67,4.21c2.41,2.85,5.01,5.49,7.6,8.15.78.8,1.52.91,2.19.24l1.5-1.5c.64-.64.58-1.41-.18-2.19-1.64-1.7-3.31-3.39-4.92-5.12l14.79-13.56c.67-.62.69-1.51.03-2.26Z"/><path class="d" d="M101.46,335.41l-2.26-3.17c-.74-1.06-1.41-2.18-2.12-3.27-1.4-2.19-2.82-4.36-4.06-6.65-.48-.84-1.13-1.07-1.96-.61l-1.78,1c-.83.46-.95,1.16-.46,2.02l1.44,2.54,1.56,2.46,3.15,4.91-5.11,3.46-4.82-7.55c-.85-1.49-2.16-2.03-3.47-1.27l-.13.08c-1.31.76-1.5,2.2-.61,3.74l4.96,7.76-4.74,3.2-3.47-5.41-1.71-2.72-1.6-2.79c-.54-.95-1.23-1.25-2.06-.78l-1.78,1.01c-.82.46-.92,1.22-.36,2.2,1.46,2.67,3.11,5.21,4.74,7.76.82,1.27,1.61,2.57,2.48,3.81l2.62,3.7c.95,1.34,2.22,1.68,3.29.89l17.87-13.16c1.07-.79,1.22-2,.41-3.15Z"/><path class="d" d="M219.99,361.58c-2.5-.51-4.61-.45-6.35.47-1.73.91-3.08,2.62-3.83,5.1l-1.42,4.75c-.34,1.12-.02,1.81.95,2.09,2.1.57,4.16,1.29,6.31,1.71.92.21,1.63-.29,1.86-1.28l.36-1.51c.23-.96-.17-1.71-1.06-1.91-.9-.21-1.81-.38-2.69-.67l.46-1.72c.3-1.13.77-1.89,1.46-2.28.7-.42,1.62-.5,2.82-.22,2.43.55,3.41,2.3,2.84,4.97l-2.07,9.59c-.55,2.59-2.22,3.64-4.87,3.03-2.66-.59-3.46-1.94-2.87-4.16l.12-.44c.14-.55-.06-.97-.56-1.11l-3.68-1.06c-.46-.13-.9.14-1.06.68l-.15.51c-.75,2.48-.48,4.63.73,6.37,1.21,1.74,3.36,3.14,6.38,3.77,3.13.69,5.79.55,7.82-.7,2.03-1.23,3.36-3.33,3.88-6.24l1.61-8.9c.52-2.91.07-5.31-1.16-7.1-1.24-1.77-3.18-3.15-5.85-3.73Z"/><path class="d" d="M208.88,358.96l-1.75-.62c-.78-.27-1.31-.02-1.91.93l-2.93,4.51c-1.12-.4-2.26-.75-3.37-1.19l-3.3-1.38.88-5.29c.2-1.11-.03-1.65-.79-1.97-.67-.28-1.34-.53-2-.83-.77-.38-1.39-.05-1.77.77-.16.34-.27.8-.43,1.6-1.38,7.13-2.43,14.08-3.33,21.28-.25,1.99.19,2.91,1.79,3.57,1.12.46,2.23.96,3.39,1.33,1.63.57,2.58.18,3.73-1.47,4.17-5.92,8.09-11.88,11.82-17.98.42-.71.64-1.12.76-1.48.27-.88.02-1.5-.78-1.8ZM199.6,367.98c-2.01,2.99-4.08,6.01-6.18,8.92.41-3.61.88-7.21,1.4-10.78,1.57.67,3.15,1.34,4.79,1.86Z"/><path class="d" d="M188.92,350.79l-1.93-.93c-.67-.31-1.34-.02-1.76.78l-7.4,14.16c.19-3.32.44-6.61.75-9.86.11-1.2-.08-1.78-.73-2.14-.76-.42-1.3-.25-2.28.47-2.68,2-5.37,3.88-8.11,5.7l8.41-13.68c.48-.77.38-1.5-.24-1.89l-1.79-1.12c-.62-.39-1.33-.16-1.83.6l-12.47,18.99c-.77,1.17-.54,2.39.63,3.12l1.83,1.15c1.28.81,1.92.8,3.25-.1,2.78-1.86,5.56-3.85,8.24-5.82-.32,3.3-.57,6.65-.76,10.03-.08,1.59.2,2.22,1.55,2.92l2.11,1.02c1.27.61,2.41.16,3.02-1.1l9.91-20.44c.4-.82.23-1.53-.4-1.83Z"/><path class="d" d="M167.8,338.17c-3.14-2.31-6.25-4.66-9.14-7.2-.55-.46-1.14-.37-1.77.34l-1.34,1.54c-.62.71-.61,1.31-.04,1.8l3.33,2.81,3.48,2.66-3.72,4.93c-1.76-1.4-3.64-2.69-5.3-4.19-.98-.84-2.19-.72-3.18.43l-.1.12c-.99,1.15-.89,2.37.13,3.24,1.73,1.55,3.65,2.88,5.48,4.33l-3.44,4.56-3.89-2.98-3.73-3.15c-.64-.54-1.28-.49-1.9.23l-1.34,1.54c-.62.71-.57,1.36.09,1.91,3.48,3.04,7.17,5.84,10.91,8.59,1.04.72,2.16.49,2.92-.6l12.74-18.17c.76-1.09.69-2.15-.18-2.75Z"/><path class="d" d="M150.83,323.04c-.91-.94-1.84-1.64-2.79-2.11-.95-.47-1.85-.78-2.81-.83-1.9-.11-3.9.67-5.85,2.35l-.66.57c-3.32,2.85-3.3,5.26-1.61,8.44l2.5,4.37c.71,1.31.94,2.15-.1,3.21l-.42.43c-1.56,1.61-2.79,1.58-4.68-.42-1.89-1.95-1.94-3.19-.44-4.58l.58-.54c.41-.39.48-.86.1-1.25l-2.32-2.65c-.35-.4-.84-.38-1.33.04l-.63.55c-1.86,1.61-2.79,3.3-2.69,5.22.06.95.33,2,.93,3.05.61,1.05,1.48,2.15,2.62,3.33,2.14,2.3,4.46,3.34,6.52,3.44,2.08.09,3.99-.86,5.7-2.76l.56-.62c2.98-3.33,2.64-5.73.79-8.64-.88-1.38-1.63-2.86-2.44-4.26-.7-1.27-.83-2.05.27-3.08l.47-.44c1.61-1.49,2.82-1.46,4.55.33,1.7,1.81,1.76,3,.34,4.47l-.61.63c-.42.43-.45.87-.1,1.2l2.48,2.32c.35.33.83.26,1.24-.19l.66-.73c1.65-1.83,2.41-3.6,2.27-5.36-.11-1.79-1.25-3.46-3.1-5.48Z"/><path class="e" d="M162.74,251.44l-.16-1.46c-.05-.43-.69-.66-1.6-.58l-9.39.79c-.08-1.6-.19-3.21-.26-4.82l9.43-.24c.91-.02,1.52-.33,1.52-.78v-1.51c-.02-.45-.63-.73-1.54-.74l-23.47-.37c-.91-.02-1.51.34-1.5.96v2.06c.01.61.61.99,1.52.97l8.93-.22c.07,1.71.18,3.42.27,5.12l-8.9.75c-.91.07-1.46.51-1.39,1.11l.22,2.02c.06.6.69.89,1.6.77l23.29-2.94c.9-.12,1.48-.45,1.44-.89Z"/><path class="e" d="M163.03,236.65c.15-1.27-.8-2.34-2.2-3.16l1.78-.62c.97-.33,1.12-.87.29-1.46l-1.08-.77c-.84-.61-2-.77-2.96-.44l-1.32.47-7.56-1.16c-2.04-.32-3.67-.11-4.87.64-1.21.74-1.98,2.02-2.09,3.74-.39,3.33,1.66,5.18,5.31,5.33h.3c.53.04.84-.1.85-.4.04-.79.02-1.57.13-2.36.03-.28-.22-.43-.67-.47l-.26-.02c-1.13-.09-1.57-.6-1.47-1.67.1-1.09.73-1.49,2.13-1.33l2.56.3c-.35.62-.57,1.35-.65,2.18-.07.74-.03,1.39.15,1.94.22.55.56,1.01,1.01,1.38.91.74,2.32,1.12,4.23,1.2l.49.02c1.82.07,3.25-.22,4.24-.79.49-.29.87-.64,1.13-1.06.29-.42.48-.92.54-1.47ZM156.84,236.88l-.38-.03c-1.32-.1-1.98-.67-1.88-1.74.05-.53.24-1.03.51-1.49l1.69.2c1.35.16,2.29.9,2.2,1.81-.09.93-.82,1.36-2.14,1.26Z"/><path class="e" d="M164.98,224.81c.6-2.75-.89-5.08-5.05-6.32l-.8-.24c-.58-.17-1.05-.06-1.15.28-.2.72-.48,1.43-.62,2.15-.07.32.24.62.83.77l.59.15c1.5.39,2.14,1.02,1.85,2.17-.28,1.12-1.34,1.4-3.26.98l-5.25-1.16c-1.96-.43-2.78-1.18-2.46-2.45.32-1.29,1.2-1.59,2.74-1.19l.44.11c.59.15,1,.03,1.08-.3.14-.74.44-1.48.64-2.22.1-.35-.22-.71-.8-.88l-.69-.2c-4.11-1.24-6.95.21-7.72,3.65-.49,1.78-.04,3.36,1.08,4.58,1.11,1.22,2.93,2.08,5.39,2.52l4.58.83c2.42.44,4.42.32,5.87-.24,1.44-.56,2.31-1.56,2.72-3Z"/><path class="e" d="M166.57,217.47l.61-1.72c.15-.43-.25-.9-1.07-1.2l-21.89-7.83c-1.25-.45-2.26-.17-2.57.71l-.4,1.15c-.32.87.32,1.71,1.59,2.12l22.15,7.07c.82.26,1.42.13,1.58-.3ZM169.52,209.38c-.49-1.2-1.99-2.19-3.7-2.19-2.23,0-4.35.08-6.57.18-1.44-1.53-2.93-3.11-4.31-4.71-.6-.69-.97-.97-1.45-1.18-.76-.33-1.36-.23-1.63.38l-.58,1.48c-.26.66,0,1.14.62,1.82,1.37,1.47,2.74,2.89,4.15,4.29.75.73,1.6,1.18,2.45,1.5.96.35,1.83.5,2.84.45,2.12-.09,4.24-.15,6.32-.16,1.6-.01,2.35-.78,1.86-1.84Z"/><path class="e" d="M172.67,203.9c.7-1.35.38-2.84-.67-4.22l1.95-.09c1.07-.04,1.47-.58.95-1.51l-.67-1.2c-.52-.93-1.55-1.49-2.62-1.44l-1.47.06-6.66-3.76c-3.55-2.04-6.69-1.3-8.38,2.18-.42.82-.69,1.61-.79,2.34-.09.74.02,1.44.26,2.07.49,1.27,1.58,2.29,3.25,3.04l.28.12c.48.22.83.19.97-.12.38-.81.7-1.63,1.11-2.44.15-.29-.02-.53-.43-.73l-.24-.12c-1.02-.5-1.22-1.19-.66-2.27.56-1.1,1.34-1.3,2.58-.65l2.28,1.2c-.61.53-1.13,1.23-1.57,2.08-.82,1.5-.85,2.83-.33,3.94.53,1.12,1.67,2.04,3.41,2.82l.45.2c1.66.74,3.13.95,4.31.68,1.18-.27,2.03-1.02,2.68-2.2ZM166.76,201.98l-.34-.17c-1.19-.58-1.56-1.42-1-2.52.28-.55.69-1.01,1.14-1.42l1.51.79c1.21.64,1.75,1.75,1.26,2.71-.5.98-1.38,1.19-2.58.61Z"/><path class="e" d="M178.51,192.68c.22-.41.53-.76.8-1.15.21-.29-.02-.68-.64-1.11l-2.02-1.41c-.53-.37-.97-.4-1.15-.15l-.5.69c-.32.44-.71.42-1.57-.15l-7.27-4.79c.29-.52.67-.98,1.01-1.47.21-.29,0-.73-.46-1.05l-2.08-1.45c-.47-.32-.96-.35-1.17-.05-.36.52-.76,1.01-1.07,1.56l-2.53-1.67c-1.11-.73-2.04-.73-2.47-.03l-.68,1.08c-.44.69-.04,1.53,1.1,2.22l2.59,1.57c-.22.33-.44.68-.67,1.1-.21.37.01.83.5,1.12l2.19,1.28c.49.29.99.25,1.19-.11.22-.41.43-.74.64-1.06l7.74,4.69c3.47,2.08,5.36,2.28,6.55.32Z"/><path class="e" d="M180.87,189.29c.31-.46.69-.86,1.02-1.3.26-.32.01-.87-.67-1.41l-8.29-6.49c-1.58-1.23-2.06-2.4-1.34-3.35.74-.93,2.03-.66,3.55.63l8.03,6.8c.67.56,1.25.71,1.53.38l1.06-1.25c.27-.34.06-.89-.58-1.47l-7.82-7.15c-3.65-3.37-6.86-3.83-8.73-1.72-.81.92-.93,2.12-.52,3.35l-5.19-4.06c-1.04-.82-2.08-.9-2.63-.21l-.72.91c-.52.72-.13,1.71.94,2.48l18.84,13.62c.71.51,1.3.59,1.53.24Z"/><path class="e" d="M191.2,178.44c1.01-1.06,1.54-2.23,1.29-3.81-.23-1.55-1.12-3.38-2.75-5.35l-2.86-3.48c-1.61-1.96-3.25-3.13-4.86-3.48-1.58-.33-3.27.02-4.56,1.34-2.72,2.49-2.2,6.06,1.49,9.54l3.25,3.12c3.72,3.51,6.85,4.08,8.99,2.13ZM188.22,175.22c-.82.8-1.96.45-3.3-.94l-3.81-3.95c-1.32-1.36-1.55-2.54-.62-3.43.92-.93,2.13-.59,3.39.84l3.65,4.1c1.28,1.44,1.49,2.58.7,3.38Z"/><path class="e" d="M196.75,173.18c.44-.33.84-.71,1.31-1.01.36-.24.27-.82-.24-1.53l-6.15-8.54c-1.18-1.63-1.3-2.87-.32-3.57.96-.68,2.05-.14,3.17,1.55l5.82,8.77c.48.72,1.01,1.03,1.38.8l1.41-.88c.37-.24.32-.84-.14-1.58l-5.53-9.04c-2.52-4.19-5.65-5.62-8.15-3.93-1.31.94-1.82,2.39-1.4,4.21-.66-.3-1.3-.54-1.95-.8-.99-.38-1.59.05-1.48,1.11l.13,1.33c.1,1.02.9,1.93,1.89,2.32l1.38.56,7.44,9.56c.54.69,1.07.94,1.41.67Z"/><path class="d" d="M27.75,265.85l-.33-3.14c-.14-1.39-.63-2.07-1.77-2.4l-5.35-1.7-.33-5.96-.15-2.98-.03-2.97,5.21-2.1c1.1-.42,1.51-1.14,1.51-2.53,0-1.22-.03-2.44.03-3.65.06-1.43-.48-2.17-1.39-2.2-.38-.01-.84.13-1.65.41-7.12,2.63-13.98,5.58-20.94,8.8-1.92.88-2.6,2.11-2.56,4.9l.3,5.88c.16,2.79.91,3.97,2.89,4.69,7.17,2.63,14.46,4.98,21.66,7.04.82.22,1.29.32,1.67.28.9-.11,1.39-.9,1.23-2.34ZM15.37,257.1c-3.57-1.19-7.14-2.46-10.71-3.79,3.43-1.64,6.81-3.21,10.32-4.7.04,2.82.25,5.66.39,8.49Z"/><path class="d" d="M26.96,229.19c.08-1.45.24-2.88.37-4.32.11-1.22-.41-2.09-1.32-2.18l-23.36-2.27c-.9-.09-1.6.77-1.72,2.14-.14,1.62-.32,3.23-.41,4.86-.07,1.38.49,2.34,1.39,2.39l23.44,1.34c.91.05,1.55-.73,1.61-1.96Z"/><path class="d" d="M72.7,258.8c-.1-1.14-.28-2.27-.31-3.41-.05-.96-.69-1.57-1.6-1.51l-23.43,1.52c-.91.06-1.47.85-1.4,1.97.05,1.33.24,2.65.36,3.97.12,1.12.8,1.81,1.7,1.71l23.34-2.49c.9-.1,1.44-.8,1.34-1.76Z"/><path class="d" d="M71.97,246.3v-2.9c-.02-.96-.59-1.57-1.5-1.58l-15.52-.14c4.96-3.11,10.23-5.95,15.33-8.53,1.51-.76,2.02-1.41,2.19-3.01l.23-2.4c.14-1.52-.63-2.57-2.06-2.73l-22.58-2.46c-.9-.1-1.54.53-1.64,1.65l-.31,3.33c-.1,1.11.4,1.85,1.31,1.91l15.33,1.12c-5.14,2.6-10.2,5.45-15.3,8.56-1.51.94-1.98,1.73-1.98,3.6v2.95c.03,1.83.91,2.88,2.35,2.84l22.71-.63c.91-.03,1.47-.65,1.47-1.57Z"/><path class="d" d="M73.9,217.98c.17-1.11.3-2.23.51-3.33.19-.98-.28-1.72-1.18-1.89l-8.6-1.57c.6-2.92,1.05-5.89,1.82-8.77.41-1.69-.17-2.97-1.68-3.34l-.15-.04c-1.47-.37-2.58.52-3.01,2.26-.78,2.95-1.25,6-1.87,9l-6.26-1.14,1.17-5.99c.41-1.99.93-3.95,1.4-5.92.27-1.09-.08-1.74-.96-1.96l-2.05-.53c-.92-.24-1.49.19-1.76,1.31-.7,2.82-1.4,5.64-1.92,8.52-.53,2.87-1.19,5.71-1.56,8.62-.24,1.61.44,2.73,1.76,2.92l22.6,3.24c.9.13,1.59-.38,1.73-1.37Z"/><path class="d" d="M78.8,195.72l.97-3.26c.27-.92-.12-1.72-.99-1.99l-22.37-7.11c-.87-.28-1.65.24-1.97,1.3l-1.11,3.74c-.31,1.06.07,1.92.94,2.17l22.61,6.3c.88.24,1.64-.21,1.91-1.13Z"/><path class="d" d="M82.64,183.89c.32-.91.62-1.82.99-2.7.36-.89.05-1.65-.8-1.98l-14.47-5.63c5.85-1.04,11.47-1.93,17.3-2.49,1.7-.18,2.43-.59,3.09-2.04l.99-2.18c.61-1.39.3-2.6-1-3.24l-20.41-9.98c-.81-.4-1.64-.06-2.11.93l-1.35,2.96c-.45.99-.21,1.84.62,2.22l14.01,6.33c-2.86.31-5.75.66-8.65,1.06-2.85.43-5.71.91-8.6,1.44-1.72.33-2.47.87-3.14,2.56-.35.89-.72,1.77-1.02,2.68-.59,1.68-.11,2.96,1.24,3.44l21.42,7.56c.86.3,1.59-.08,1.89-.94Z"/><path class="d" d="M94.19,157.99c.52-1,1.1-1.97,1.65-2.95.47-.83.26-1.68-.53-2.13l-20.43-11.56c-.79-.45-1.67-.12-2.2.81-.62,1.11-1.26,2.2-1.85,3.33-.49.96-.29,1.89.52,2.31l20.78,10.91c.81.42,1.63.13,2.07-.72Z"/><path class="d" d="M103.31,142.63c.61-.95,1.28-1.85,1.92-2.77.58-.82.43-1.66-.31-2.19l-16.4-11.57c1.37-1.95,2.72-3.91,4.22-5.77.67-.86.64-1.62-.08-2.18l-1.67-1.3c-.75-.58-1.48-.38-2.16.5l-1.7,2.2-1.61,2.27-3.2,4.56c-2.1,3.06-4.01,6.25-6,9.38-.56.94-.44,1.67.37,2.15l1.83,1.07c.79.46,1.48.21,2.02-.7l3.78-6.01,16.83,10.92c.76.49,1.61.28,2.15-.57Z"/><path class="d" d="M114.32,127.85l5.09-5.87,5.37-5.62c.67-.69.75-1.35.08-2.04l-1.43-1.46c-.66-.67-1.39-.65-2.08.07-2.65,2.82-5.43,5.52-7.9,8.5l-4.65-4.06c1.9-2.28,3.96-4.41,6.02-6.55,1.18-1.23,1.33-2.65.26-3.72l-.11-.11c-1.07-1.07-2.48-.86-3.7.41-2.11,2.2-4.23,4.39-6.18,6.73l-4.3-3.76c2.72-3.26,5.75-6.23,8.66-9.32.76-.78.88-1.49.21-2.17l-1.43-1.46c-.66-.67-1.43-.6-2.21.2l-6.21,6.49-5.89,6.78c-1.08,1.22-1.01,2.59,0,3.41l17.25,13.96c1.05.84,2.19.63,3.12-.42Z"/><path class="d" d="M117.93,247.93c-.12-4.75-2.94-7.75-8.09-7.93l-4.96-.13c-1.16-.03-1.8.44-1.77,1.42l.05,6.35c.05.91.73,1.43,1.75,1.39l1.55-.07c.98-.05,1.6-.6,1.54-1.48-.05-.89-.01-1.78-.03-2.66l1.78-.02c2.38-.03,3.38.96,3.52,3.29.14,2.35-1.27,3.71-3.99,3.91l-9.78.68c-2.64.19-4.11-1.09-4.26-3.75-.17-2.66,1.04-3.78,3.28-3.81h.45c.57-.01.91-.32.91-.82l-.02-3.74c.02-.47-.34-.81-.91-.83h-.53c-2.6-.08-4.64.71-5.95,2.32-1.29,1.6-2.09,4.03-1.92,7.05.26,6.36,4.09,9.77,9.93,9.06l8.99-1.01c5.89-.72,8.67-4.17,8.47-9.25Z"/><path class="d" d="M117.55,237.11l.07-1.78c.03-.79-.31-1.23-1.39-1.55l-5.09-1.64.32-3.45c.1-1.15.32-2.3.48-3.45l5.34-.42c1.12-.07,1.59-.42,1.7-1.21.08-.69.23-1.38.37-2.07.16-.81-.32-1.33-1.21-1.5-.37-.07-.84-.07-1.65-.03-3.57.18-7.18.42-10.77.73-3.55.31-7.12.69-10.7,1.14-1.99.24-2.77.89-3.02,2.59-.2,1.19-.29,2.39-.4,3.58-.16,1.71.45,2.52,2.32,3.2,6.7,2.5,13.62,4.73,20.48,6.68.79.21,1.24.32,1.61.34.91.04,1.49-.35,1.53-1.16ZM106.42,230.63c-3.4-1.17-6.8-2.4-10.19-3.69,3.53-.5,7.18-.92,10.75-1.29-.28,1.66-.41,3.32-.56,4.98Z"/><path class="d" d="M120.34,216.47l.51-2.03c.17-.69-.27-1.27-1.16-1.49l-15.51-3.83c3.24-.59,6.39-1.12,9.65-1.55,1.2-.17,1.72-.48,1.93-1.17.24-.82-.05-1.3-.97-2.07-2.51-2.1-5.07-4.3-7.45-6.53l15.25,5.03c.86.28,1.55.03,1.79-.65l.69-1.98c.24-.69-.15-1.31-1-1.62l-21.34-7.78c-1.31-.48-2.45.02-2.9,1.32l-.71,2.04c-.49,1.43-.37,2.04.86,3.14,2.5,2.28,5.02,4.49,7.56,6.62-3.3.44-6.66.95-9.91,1.57-1.55.29-2.05.73-2.41,2.19l-.56,2.26c-.36,1.36.43,2.36,1.78,2.65l22.22,4.71c.9.19,1.51-.13,1.67-.8Z"/><path class="d" d="M127.68,193.37c.68-1.85,1.59-3.62,2.38-5.44l1.23-2.71,1.37-2.67c.34-.66.12-1.23-.73-1.66l-1.82-.94c-.84-.44-1.43-.27-1.78.41-1.42,2.64-2.6,5.37-3.83,8.07l-5.65-2.48c.97-2.07,1.84-4.18,2.88-6.23.6-1.18.22-2.34-1.13-3.02l-.14-.07c-1.35-.69-2.53-.29-3.15.93-1.07,2.11-1.97,4.28-2.97,6.42l-5.24-2.3c1.37-2.99,2.67-6.01,4.24-8.92.38-.75.19-1.37-.65-1.8l-1.82-.94c-.84-.43-1.46-.22-1.85.55l-1.59,3.12-1.45,3.18c-.94,2.13-1.99,4.22-2.8,6.39-.47,1.17.01,2.22,1.24,2.71l20.61,8.23c1.23.49,2.26.18,2.65-.82Z"/><path class="d" d="M138.69,172.55c1.41-2.2,1.84-4.28,1.44-6.18-.35-1.86-1.58-3.59-3.7-5.06l-.72-.5c-3.58-2.49-5.99-1.91-8.56.58-1.21,1.16-2.46,2.27-3.66,3.5-1.05,1.09-1.85,1.51-3.13.77l-.53-.3c-1.93-1.1-2.2-2.34-.77-4.72,1.45-2.29,2.65-2.64,4.38-1.54l.67.43c.48.3.96.25,1.25-.2.62-1,1.24-2,1.94-2.95.31-.44.17-.9-.36-1.27l-.69-.47c-2.03-1.4-3.9-1.87-5.76-1.31-1.8.6-3.53,2.28-5.28,5.04-3.18,5.51-2.28,9.76,2.28,12.15l.73.39c3.91,2.08,6.22,1.14,8.68-1.45l1.75-1.83c.58-.6,1.2-1.13,1.79-1.69,1.07-.98,1.81-1.3,3.08-.49l.54.35c1.85,1.18,2.1,2.36.76,4.45-1.31,2.2-2.49,2.61-4.27,1.58l-.76-.43c-.53-.3-.97-.21-1.21.22l-1.74,3.06c-.25.43-.04.91.48,1.19l.87.46c4.31,2.3,7.62,1.18,10.47-3.79Z"/><path class="e" d="M213.57,163.26l1.46-.68c.45-.16.51-.83.17-1.67l-3.54-8.74c1.61-.57,3.16-1.32,4.81-1.79l3.06,8.92c.3.86.79,1.34,1.24,1.18l1.53-.53c.45-.17.57-.79.3-1.67l-6.76-22.48c-.26-.86-.81-1.37-1.41-1.16l-2.02.69c-.6.2-.79.9-.5,1.76l2.9,8.45c-1.74.5-3.38,1.28-5.08,1.88l-3.36-8.28c-.34-.84-.95-1.26-1.54-1.04l-1.94.88c-.58.26-.68.96-.3,1.79l9.64,21.4c.37.83.89,1.27,1.32,1.07Z"/><path class="e" d="M228.76,158.73c.64-.15,1.16-.52,1.56-1.07.41-.5.7-1.18.86-2l1.15,1.49c.62.81,1.18.78,1.5-.21l.41-1.27c.33-.95.13-2.11-.49-2.95l-.86-1.11-1.22-7.55c-.63-4.05-2.9-5.99-6.37-5.26-1.65.39-2.81,1.16-3.42,2.27-.6,1.18-.65,2.67-.17,4.44l.08.29c.14.51.37.76.67.67.77-.26,1.58-.39,2.38-.58.28-.06.35-.35.25-.79l-.06-.26c-.26-1.11.1-1.69,1.17-1.94,1.09-.28,1.68.25,1.95,1.63l.5,2.53c-.73-.21-1.5-.12-2.33.06-3,.63-3.84,2.87-2.81,6.55l.13.47c.98,3.5,2.87,5.03,5.13,4.57ZM226.62,152.93l-.09-.37c-.31-1.29.04-2.1,1.12-2.36.54-.12,1.07-.13,1.62.03l.33,1.67c.26,1.32-.18,2.4-1.09,2.64-.94.22-1.58-.33-1.89-1.62Z"/><path class="e" d="M240.69,156.93c.69-.05,1.31-.27,1.84-.58.54-.28,1-.7,1.37-1.25.74-1.11,1.15-2.76,1.1-4.91l-.02-.83c-.01-.61-.26-1.01-.59-1l-2.16.05c-.32,0-.51.41-.47,1.01l.04.6c.09,1.55-.31,2.35-1.45,2.45-1.12.09-1.7-.82-1.89-2.78l-.51-5.35c-.2-2,.26-3.01,1.53-3.12,1.3-.11,1.85.63,1.94,2.22l.03.45c.04.61.28.95.61.95l2.24-.05c.35-.01.58-.44.57-1.04l-.02-.72c-.05-2.16-.59-3.76-1.57-4.83-.49-.53-1.09-.93-1.79-1.19-.69-.23-1.48-.28-2.34-.21-1.8.14-3.18.93-3.99,2.42-.82,1.45-1.07,3.44-.73,5.92l.62,4.62c.7,4.92,2.8,7.31,5.66,7.17Z"/><path class="e" d="M247.85,156.23l1.7.03c.42,0,.73-.53.77-1.4l.87-23.23c.05-1.32-.5-2.2-1.4-2.21l-1.17-.02c-.9-.02-1.48.84-1.48,2.16v23.25c0,.87.29,1.41.71,1.42ZM255.79,156.59c.91-.84,1.39-2.58.95-4.19-.58-2.09-1.22-4.23-1.91-6.24.97-1.9,1.98-3.68,3.05-5.48.46-.78.6-1.22.66-1.75.09-.83-.16-1.35-.78-1.43-.5-.05-.99-.15-1.49-.17-.67-.04-1.03.36-1.47,1.17-.94,1.76-1.84,3.52-2.7,5.28-.45.91-.62,1.85-.66,2.76-.05,1.02.06,1.9.39,2.88.67,1.99,1.29,3.97,1.86,5.93.44,1.49,1.31,1.95,2.11,1.25Z"/><path class="e" d="M261.29,157.89c.66.11,1.29-.04,1.87-.39.58-.32,1.11-.82,1.58-1.51l.51,1.82c.27.99.82,1.18,1.49.39l.88-1.02c.68-.77.94-1.92.66-2.91l-.38-1.35,1.74-7.45c.47-2.01.38-3.65-.29-4.9-.33-.62-.81-1.15-1.42-1.57-.61-.44-1.36-.73-2.24-.85-1.69-.27-3.07,0-4.07.79-1.01.85-1.63,2.22-1.86,4.04l-.04.3c-.07.53.05.84.36.88.82.05,1.63.26,2.44.38.29.05.46-.19.54-.64l.04-.26c.18-1.12.74-1.52,1.84-1.35,1.12.16,1.48.87,1.21,2.25l-.5,2.53c-.61-.46-1.36-.68-2.21-.83-3.05-.57-4.69,1.18-5.14,4.97l-.06.49c-.22,1.8-.03,3.25.5,4.27.53,1.01,1.38,1.75,2.54,1.92ZM261.52,151.71l.06-.37c.21-1.31.85-1.93,1.95-1.75.55.1,1.06.28,1.51.65l-.33,1.67c-.26,1.32-1.1,2.16-2.04,2.03-.96-.15-1.36-.91-1.15-2.22Z"/><path class="e" d="M272.78,160.17l1.41.46c.36.12.69-.22.93-.94l.79-2.33c.21-.61.11-1.04-.22-1.14l-.86-.28c-.54-.18-.63-.61-.32-1.58l2.58-8.32,1.77.58c.35.11.73-.2.91-.74l.81-2.4c.18-.54.06-1.01-.31-1.13l-1.87-.61.9-2.89c.39-1.26.12-2.2-.68-2.46l-1.27-.33c-.81-.21-1.53.41-1.88,1.69l-.79,2.92-1.21-.33c-.37-.1-.73.23-.87.78l-.62,2.46c-.14.55,0,1.02.36,1.12l1.16.32-2.37,8.73c-.53,1.95-.69,3.39-.43,4.42.26,1.03.94,1.58,2.09,2.01Z"/><path class="e" d="M276.95,161.58l1.67.64c.42.16.9-.23,1.22-1.04l3.88-9.78c.73-1.84,1.77-2.71,2.93-2.18,1.15.52,1.32,1.79.52,3.63l-4.22,9.64c-.35.8-.3,1.4.14,1.59l1.65.7c.43.22.92-.12,1.29-.91l4.59-9.56c1.06-2.21,1.49-4.2,1.28-5.73-.22-1.52-1.06-2.64-2.41-3.25-.59-.26-1.18-.37-1.77-.33-.59.07-1.17.31-1.73.68l2.43-6.12c.49-1.23.25-2.25-.61-2.58l-1.12-.43c-.86-.33-1.71.27-2.15,1.52l-7.81,21.9c-.29.82-.19,1.43.23,1.6Z"/><path class="e" d="M291.7,168.99c1.55.81,2.73.82,4.1.12,1.37-.7,2.83-2.11,4.23-4.25l2.47-3.77c1.39-2.12,2.03-4.02,1.93-5.65-.11-1.63-.88-3-2.71-3.97-1.73-.94-3.4-1.2-4.98-.46-1.57.71-2.95,2.21-4.1,4.47l-2.03,4.02c-1.15,2.28-1.57,4.26-1.37,5.83.22,1.54,1.01,2.88,2.46,3.66ZM293.89,165.18c-1.12-.62-1.18-1.84-.25-3.53l2.64-4.81c.91-1.66,2.02-2.2,3.24-1.52,1.23.69,1.38,1.92.37,3.54l-2.82,4.71c-.96,1.65-2.09,2.22-3.18,1.61Z"/><path class="e" d="M298.25,172.61c.42.31.88.55,1.27.89.32.26.84,0,1.36-.7l6.35-8.39c1.21-1.6,2.35-2.1,3.26-1.4.91.66.65,1.91-.63,3.46l-6.68,8.13c-.55.67-.7,1.25-.38,1.53l1.21,1.02c.32.27.87.03,1.45-.62l7.04-7.92c3.29-3.65,3.73-6.96,1.49-8.83-1.24-.93-2.75-.96-4.34,0,.1-.71.16-1.39.22-2.08.09-1.04-.48-1.48-1.44-1.04l-1.21.54c-.93.41-1.56,1.45-1.65,2.49l-.16,1.46-6.92,9.94c-.5.72-.6,1.29-.26,1.53Z"/><path class="d" d="M160.07,38.48l2.83-1.24c1.27-.5,1.77-1.15,1.74-2.31v-5.61s5.45-2.1,5.45-2.1l5.54-1.88,3.54,4.33c.73.92,1.52,1.09,2.82.66,1.14-.38,2.3-.68,3.45-1.01,1.36-.39,1.89-1.13,1.65-2-.1-.36-.37-.76-.89-1.44-2.31-2.96-4.69-5.9-7.12-8.82-2.43-2.9-4.91-5.72-7.46-8.54-1.4-1.57-2.75-1.84-5.33-.97-1.82.59-3.61,1.25-5.39,1.95-2.55.98-3.41,2.05-3.49,4.15-.15,3.8-.26,7.55-.27,11.34-.01,3.8.04,7.58.15,11.33.04.85.08,1.33.24,1.68.37.83,1.25,1.06,2.55.49ZM164.56,24.15c.04-3.77.15-7.55.31-11.35,2.56,2.8,5.06,5.65,7.51,8.51l-3.93,1.35-3.88,1.49Z"/><path class="d" d="M194.23,26.92l4.19-.97c1.18-.27,1.84-1.04,1.65-1.93l-5-22.94c-.19-.89-1.21-1.28-2.54-.98l-4.7,1.09c-1.33.3-2.06,1.12-1.83,2.01l5.87,22.73c.23.87,1.16,1.25,2.35.98Z"/><path class="d" d="M180.03,79.33c1.05-.44,2.12-.83,3.17-1.25.9-.35,1.28-1.15.95-1.99l-8.43-21.91c-.33-.85-1.23-1.15-2.27-.74-1.22.48-2.45.94-3.66,1.45-1.02.45-1.46,1.3-1.1,2.14l9.26,21.57c.36.83,1.19,1.13,2.07.74Z"/><path class="d" d="M191.72,74.97l2.74-.92c.91-.3,1.32-1.04,1.05-1.91l-4.57-14.84c4.48,3.93,8.73,7.94,12.75,12.03,1.19,1.24,1.97,1.56,3.54,1.2l2.35-.54c1.48-.34,2.25-1.41,1.96-2.82l-4.59-22.25c-.18-.89-.97-1.29-2.06-1.05l-3.25.74c-1.08.25-1.62.96-1.41,1.84l3.62,14.94-3.08-3.1-3.14-2.99c-2.12-1.98-4.3-3.95-6.54-5.89-1.34-1.13-2.26-1.45-4.01-.85l-2.77.92c-1.71.57-2.44,1.73-1.96,3.09l7.43,21.47c.3.86,1.05,1.2,1.93.91Z"/><path class="d" d="M219.22,68.14c1.1-.22,2.22-.35,3.33-.5.99-.13,1.55-.81,1.43-1.71l-1.15-8.67,4.45-.57c1.48-.17,2.98-.26,4.47-.39,1.73-.14,2.78-1.1,2.67-2.65v-.15c-.11-1.51-1.3-2.29-3.09-2.15-1.53.13-3.06.23-4.59.4l-4.57.59-.84-6.31c2.02-.25,4.04-.56,6.07-.74l6.09-.5c1.12-.09,1.63-.62,1.58-1.53l-.13-2.12c-.06-.94-.64-1.36-1.79-1.26-2.91.26-5.83.4-8.73.79-2.9.38-5.8.72-8.69,1.17-1.6.28-2.46,1.28-2.23,2.59l3.87,22.5c.16.9.85,1.39,1.84,1.21Z"/><path class="d" d="M241.93,65.99l3.41-.11c.96-.03,1.6-.59,1.6-1.51l-.02-23.47c0-.9-.74-1.55-1.85-1.52l-3.93.12c-1.11.03-1.83.66-1.79,1.57l.92,23.46c.04.91.7,1.49,1.66,1.46Z"/><path class="d" d="M254.41,66.01l2.88.19c.96.06,1.6-.46,1.66-1.37l1.04-15.49c1.39,2.61,2.72,5.2,3.99,7.81,1.26,2.66,2.46,5.33,3.6,7.98.67,1.57,1.29,2.13,2.88,2.32.8.08,1.59.2,2.38.34,1.5.25,2.59-.45,2.82-1.87l3.65-22.42c.15-.9-.44-1.57-1.54-1.75-1.09-.17-2.18-.39-3.28-.5-1.1-.13-1.86.35-1.98,1.25l-1.95,15.25c-1.15-2.63-2.36-5.27-3.62-7.91-1.27-2.66-2.59-5.28-3.99-7.84-.84-1.54-1.6-2.08-3.44-2.2l-2.9-.19c-1.8-.13-2.89.78-2.94,2.2l-.75,22.71c-.03.91.55,1.49,1.47,1.5Z"/><path class="d" d="M282.67,69.55l3.33.73c.94.21,1.7-.25,1.91-1.13l5.4-22.85c.21-.88-.37-1.63-1.45-1.87l-3.83-.83c-1.08-.23-1.92.21-2.1,1.1l-4.55,23.03c-.17.89.34,1.62,1.27,1.83Z"/><path class="d" d="M300,74.06l3.2,1.04c.95.31,1.72-.08,2.02-.94l6.53-18.97c2.26.7,4.42,1.63,6.64,2.44,1,.38,1.73.13,2.06-.71l.78-1.97c.35-.88-.04-1.52-1.07-1.91l-5.14-1.95-5.24-1.72c-1.75-.56-3.49-1.15-5.25-1.67l-5.33-1.45c-1.07-.29-1.76,0-1.99.91l-.53,2.05c-.23.88.22,1.51,1.26,1.79,2.26.63,4.55,1.19,6.79,1.9l-5.84,19.2c-.26.87.17,1.65,1.12,1.96Z"/><path class="d" d="M317.23,80.44c2.35,1.06,4.75,2.02,7.06,3.18l6.92,3.46c.85.45,1.51.32,1.96-.52l.97-1.8c.45-.83.21-1.5-.66-1.96l-5.15-2.58c-1.72-.86-3.43-1.74-5.2-2.48l2.56-5.62,2.02.89,1.97.98,3.94,1.97c1.51.76,2.9.48,3.61-.86l.07-.13c.71-1.34.11-2.62-1.44-3.39l-4.03-2.01-2.02-1-2.07-.91,2.37-5.2c1.93.81,3.79,1.76,5.65,2.69l5.6,2.81c.94.5,1.65.4,2.11-.44l.97-1.8c.45-.83.16-1.53-.81-2.04l-7.89-3.95c-2.63-1.32-5.37-2.42-8.06-3.63-1.47-.64-2.71-.27-3.21.95l-8.49,20.5c-.51,1.23-.02,2.35,1.26,2.91Z"/><path class="d" d="M203.94,119.26c2.33-.76,3.96-2.06,4.87-3.81.93-1.67,1.12-3.8.4-6.3l-1.38-4.76c-.33-1.13-.96-1.54-1.91-1.27-2.05.61-4.06,1.35-6.1,2-.88.28-1.19,1.08-.83,2.05l.53,1.46c.33.92,1.06,1.34,1.91,1.07l2.57-.85.56,1.69c.73,2.23.12,3.6-2.15,4.34-2.25.85-3.98-.04-4.98-2.58l-3.57-9.14c-.97-2.46-.19-4.28,2.32-5.24,2.55-.84,3.95-.16,4.66,2l.14.43c.18.54.57.77,1.05.61,1.19-.4,2.38-.82,3.6-1.13.45-.13.67-.58.51-1.13l-.15-.51c-.72-2.49-2.1-4.18-4.06-5.01-1.94-.76-4.45-.65-7.34.31-2.97,1.13-5.04,2.84-6.05,4.9-.99,2.13-.9,4.63.28,7.33l3.61,8.3c1.18,2.71,2.87,4.45,4.82,5.3,1.99.91,4.24.89,6.69-.05Z"/><path class="d" d="M214.34,115.57c.58-.17,1.16-.33,1.75-.45.78-.18,1.09-.67,1.07-1.79v-5.36c1.15-.25,2.27-.56,3.42-.76l3.44-.61,2.04,4.94c.42,1.05.88,1.36,1.68,1.25l2.09-.26c.82-.11,1.16-.72,1.05-1.63-.05-.38-.19-.81-.47-1.58-2.54-6.66-5.35-13.39-8.39-19.86-.84-1.81-1.7-2.35-3.39-2.04-1.18.23-2.38.38-3.55.68-1.67.39-2.26,1.22-2.34,3.22-.32,7.2-.38,14.34-.15,21.54.03.82.07,1.28.17,1.64.24.88.79,1.31,1.59,1.08ZM217.16,102.99c.07-3.59.2-7.26.4-10.82,1.58,3.27,3.09,6.55,4.54,9.84-1.65.3-3.31.56-4.94.98Z"/><path class="d" d="M234.94,111.91l2.07-.16c.71-.06,1.11-.66,1.05-1.57l-1.11-15.94c.78,1.44,1.53,2.87,2.26,4.32.74,1.48,1.45,2.95,2.15,4.43.52,1.08.97,1.49,1.69,1.46.84-.03,1.21-.46,1.66-1.57,1.22-3.09,2.53-6.06,3.92-9.05l-.16,16.05c0,.91.43,1.49,1.14,1.5l2.05.03c.71,0,1.18-.54,1.22-1.44l1-22.7c.07-1.41-.75-2.34-2.12-2.36l-2.15-.04c-1.5-.03-2.05.3-2.71,1.77-1.41,2.99-2.73,6.15-3.97,9.21-1.42-3-2.92-6-4.5-8.99-.75-1.38-1.32-1.71-2.81-1.59l-2.32.19c-1.39.11-2.12,1.08-1.97,2.47l2.35,22.6c.1.9.6,1.44,1.28,1.38Z"/><path class="d" d="M258.76,111.83l5.71.66c1.9.23,3.79.63,5.69.91.7.11,1.17-.27,1.35-1.2l.38-2.01c.18-.93-.13-1.44-.87-1.56l-4.28-.72c-1.42-.25-2.87-.35-4.3-.53l.7-6.13,3.33.38c1.11.15,2.21.37,3.31.54,1.27.21,2.25-.51,2.52-2l.03-.15c.27-1.49-.43-2.49-1.75-2.71-1.14-.18-2.28-.4-3.43-.56l-3.45-.4.65-5.68c1.61.21,3.23.32,4.83.6l4.81.8c.82.14,1.35-.24,1.53-1.17l.38-2.01c.18-.93-.2-1.45-1.05-1.59-2.28-.36-4.55-.81-6.84-1.09l-6.88-.79c-1.25-.08-2.1.7-2.2,2.02l-1.71,22.12c-.1,1.32.49,2.19,1.52,2.26Z"/><path class="d" d="M280.99,116.31c1.28.35,2.46.47,3.53.4,1.06-.02,2.03-.25,2.89-.68,1.72-.87,3.05-2.55,3.87-4.99l.28-.83c1.4-4.15.11-6.19-2.98-8.13l-4.41-2.49c-1.3-.75-1.9-1.42-1.55-2.86l.14-.59c.53-2.17,1.59-2.7,4.26-1.98,2.63.71,3.31,1.76,2.73,3.72l-.23.76c-.16.55.03.97.54,1.15l3.39,1.11c.52.17.93-.1,1.13-.71l.26-.79c.78-2.33.71-4.26-.37-5.86-.54-.8-1.32-1.52-2.36-2.17-1.06-.59-2.38-1.1-3.97-1.53-1.52-.4-2.89-.62-4.13-.56-1.24.09-2.33.38-3.25.88-1.84.99-3.01,2.78-3.53,5.28l-.17.82c-.89,4.38.63,6.27,3.71,7.82l4.29,2.47c1.26.73,1.78,1.34,1.35,2.79l-.18.62c-.63,2.1-1.7,2.69-4.13,2.03-2.43-.66-3.06-1.75-2.58-3.72l.21-.85c.14-.59-.06-.98-.52-1.08l-3.33-.72c-.47-.1-.85.2-.98.79l-.2.96c-.49,2.41-.25,4.32.76,5.76.51.72,1.22,1.33,2.13,1.82.92.5,2.02,1,3.37,1.35Z"/><path class="e" d="M312.34,185.54l1.1,1.34c.33.39,1.01.26,1.72-.31l7.31-5.95c1.17,1.36,2.25,2.93,3.41,4.38l-7.6,5.59c-.73.54-1.02,1.19-.7,1.65l1.08,1.53c.32.45,1.02.38,1.77-.13l19.35-13.29c.75-.51,1.01-1.19.61-1.75l-1.33-1.88c-.39-.56-1.13-.56-1.87-.02l-7.2,5.29c-1.21-1.51-2.34-3.14-3.56-4.57l6.93-5.64c.71-.57.91-1.28.48-1.78l-1.4-1.7c-.41-.52-1.15-.37-1.82.22l-17.67,15.45c-.69.61-.93,1.19-.61,1.6Z"/><path class="e" d="M322.59,200.64c.43.71,1.02,1.2,1.72,1.52.69.35,1.49.5,2.36.46l-.9,1.79c-.49.97-.19,1.65.9,1.73l1.4.15c1.09.12,2.1-.48,2.6-1.47l.69-1.37,6.7-3.68c3.61-1.95,4.47-5.07,2.37-8.62-2.02-3.38-4.85-3.97-7.92-1.94l-.25.17c-.44.29-.6.61-.4.9.52.77,1.04,1.56,1.52,2.4.18.29.48.29.87.05l.23-.14c.97-.6,1.68-.37,2.35.72.69,1.1.45,1.93-.76,2.63l-2.22,1.3c-.13-.89-.5-1.7-1.03-2.58-1.86-3.15-4.35-3.36-7.52-1.28l-.41.27c-3.04,2.04-3.77,4.48-2.29,6.99ZM327.32,196.61l.32-.2c1.13-.7,2.07-.53,2.76.6.34.57.56,1.17.66,1.84l-1.47.86c-1.17.67-2.43.46-3.04-.51-.62-1.01-.36-1.89.77-2.59Z"/><path class="e" d="M330.23,214.74c.85,1.75,2,3.02,3.47,3.56.74.3,1.51.34,2.42.38,1,.21,2,.11,2.99-.34l.76-.34c.28-.13.44-.37.49-.69.02-.16.02-.33-.02-.52-.04-.2-.03-.24-.09-.36l-1.23-2.65c-.18-.39-.64-.49-1.19-.23l-.55.26c-1.41.67-2.34.39-3.03-1.01-.68-1.36-.12-2.37,1.64-3.25l4.82-2.39c1.8-.89,2.98-.71,3.71.74.73,1.48.26,2.45-1.17,3.11l-.41.19c-.55.26-.77.68-.59,1.08l1.25,2.69c.06.12.1.15.22.3.12.14.26.26.4.34.28.16.58.2.85.07l.66-.3c.98-.45,1.71-1.11,2.21-1.96.57-.7,1.02-1.34,1.26-2.12.48-1.53.26-3.39-.68-5.33-1-1.99-2.4-3.31-4.13-3.77-1.74-.45-3.77-.11-5.98,1.06l-4.12,2.17c-2.18,1.15-3.6,2.59-4.25,4.15-.66,1.58-.59,3.37.31,5.16Z"/><path class="e" d="M337.18,228.2l2.3,4.61c.58,1.15,1.45,1.68,2.21,1.27l20.51-10.93c1.17-.63,1.4-2.1.58-3.73l-1.07-2.14c-.81-1.63-2.12-2.32-3.31-1.75l-20.93,10.12c-.78.38-.88,1.4-.3,2.55ZM348.92,249.14c2.08,1.61,3.96,1.27,4.37-1.04.52-3.01,1.07-5.98,1.67-8.9,2.72.82,5.42,1.59,8.1,2.31,1.16.3,1.65.24,2.1-.04.7-.45.75-1.31.03-2.51l-1.75-2.91c-.78-1.3-1.52-1.73-2.68-2.06-2.52-.68-5.05-1.41-7.61-2.18-1.33-.41-2.33-.25-3.13.19-.9.49-1.47,1.25-1.78,2.59-.64,2.74-1.25,5.52-1.82,8.34-.44,2.15.66,4.81,2.5,6.22Z"/><path class="e" d="M358,263.48c1.18,1.65,2.42,2.97,3.65,3.93,1.27.94,2.56,1.51,3.76,1.75l.32,3.03c.18,1.66,1.26,3.08,2.86,3.57l2.06.63c1.59.48,2.4-.38,2.2-2.03l-.26-2.26,5.87-4.91c1.58-1.33,2.09-3.2,1.58-5.5-.25-1.15-.76-2.41-1.51-3.77-.38-.68-.82-1.38-1.31-2.11-.46-.76-.98-1.54-1.56-2.35-4.44-6.2-8.46-8.51-11.53-6.49l-.25.17c-.44.29-.47.78-.03,1.42l3.51,5c.42.59.83.71,1.19.44l.22-.16c.92-.66,1.99,0,3.52,2.13.78,1.09,1.23,1.96,1.33,2.67.13.68-.08,1.22-.63,1.64l-2.04,1.57c-.86-1.53-1.83-3.25-3.11-5.01-4.5-6.31-8.06-8.25-11.27-6.16l-.41.27c-3.04,1.98-2.3,6.7,1.85,12.51ZM361.66,258.05l.31-.22c1.08-.77,2.48-.03,4.2,2.37.88,1.18,1.53,2.47,2.23,3.65l-1.35,1.04c-1.1.85-3-.01-4.57-2.23-1.62-2.26-1.9-3.83-.82-4.6Z"/><path class="e" d="M380.89,289.78l3.04,3.11c.78.8,1.49.91,2.01.37l1.71-1.77c.45-.46.27-1.18-.38-1.84l-1.73-1.77c-1.09-1.11-1.22-1.79-.48-2.51l6.22-6.09,3.08,3.15c.62.63,1.33.76,1.73.35l1.77-1.82c.39-.41.27-1.13-.34-1.75l-3.05-3.13,2.17-2.12c.95-.93.74-2.28-.46-3.53l-1.9-1.98c-1.2-1.26-2.55-1.53-3.53-.64l-2.25,2.03c-.66-.66-1.26-1.38-1.86-2.1-.56-.66-1.25-.84-1.68-.47l-1.91,1.67c-.43.37-.35,1.11.22,1.78.61.73,1.23,1.47,1.9,2.14l-6.71,6.07c-3.01,2.7-2.54,5.67,2.46,10.83Z"/><path class="e" d="M390.11,298.72l3.85,3.43c.97.86,1.97,1.03,2.54.37l6.87-7.98c1.31-1.52,3.18-1.33,5.38.58,2.26,1.83,2.82,3.6,1.56,5.18l-6.55,8.24c-.54.68-.22,1.6.85,2.42l4.05,3.09c1.08.81,2.05.88,2.56.18l6.26-8.55c2.89-3.99,1.18-8.76-3.85-12.67-1.12-.84-2.19-1.55-3.21-2.1-1.04-.54-2.06-.88-3.05-1.02l4.3-4.99c.86-1.01.53-2.46-.83-3.67l-1.79-1.59c-1.36-1.21-2.84-1.38-3.75-.41l-15.86,17c-.59.64-.3,1.61.66,2.48Z"/><path class="e" d="M427.16,327.17c1.91,1.27,3.83,2.06,5.56,2.66,1.74.58,3.33.89,4.74.91,2.83.05,4.93-1.05,6.12-3.31l2.11-3.98c1.18-2.24.96-4.59-.45-6.88-.71-1.14-1.71-2.27-2.99-3.37-1.27-1.12-2.88-2.12-4.63-3.3-6.99-4.46-12.76-5.01-15.69-.86l-2.57,3.7c-2.95,4.17.06,9.49,7.81,14.43ZM429.44,323.42c-2.82-1.8-3.67-3.57-2.63-5.19l2.95-4.63c1.02-1.59,2.91-1.59,5.54.09,1.33.88,2.24,1.69,2.71,2.5.46.82.45,1.65-.02,2.47l-2.76,4.75c-.48.83-1.23,1.27-2.21,1.28-.99.03-2.21-.37-3.58-1.27Z"/><path class="e" d="M448.14,338.04l4.62,2.12c1.22.56,2.19.41,2.54-.39l4.29-9.61c.82-1.83,2.67-2.2,5.32-1.02,2.58,1.2,3.6,2.65,2.85,4.53l-3.91,9.77c-.32.81.24,1.59,1.5,2.06l4.77,1.77c1.26.46,2.21.24,2.5-.58l3.55-9.99c1.62-4.66-1.54-8.74-7.81-11.18-3.33-1.48-6.28-1.82-8.59-.95l-1.55-2.71c-.79-1.36-2.27-2.09-3.84-1.82-.67.1-1.35.22-2.01.28-1.54.16-2,1.29-1.25,2.72.33.68.7,1.29,1.06,1.94l-5.36,10.87c-.39.78.12,1.6,1.34,2.17Z"/><path class="d" d="M416.07,97.99l1.94,2.33c.86,1.03,1.62,1.31,2.73.93l5.36-1.71c2.29,3,4.67,5.98,6.83,9.03l-3.12,4.62c-.67.96-.61,1.75.15,2.83.66.94,1.35,1.88,1.97,2.83.74,1.12,1.59,1.37,2.34.87.31-.21.61-.58,1.11-1.27,4.34-6.11,8.37-12.37,12.34-18.81,1.09-1.78,1.03-3.11-.53-5.2l-3.35-4.39c-1.61-2.08-2.83-2.57-4.87-2-7.34,2.02-14.54,4.24-21.59,6.65-.79.29-1.24.47-1.53.72-.68.59-.67,1.5.23,2.57ZM430.97,97.92c3.57-1.09,7.17-2.14,10.81-3.15-1.94,3.23-3.9,6.41-5.92,9.55l-4.88-6.4Z"/><path class="d" d="M436.68,126.11l2.11,3.45c.59.97,1.51,1.31,2.29.85l20.12-12.09c.78-.47.87-1.49.21-2.56l-2.32-3.78c-.67-1.07-1.66-1.45-2.42-.96l-19.76,12.67c-.77.49-.84,1.46-.23,2.43Z"/><path class="d" d="M382.79,129.02l2.17,2.62c.61.74,1.45.89,2.17.32l18.45-14.52c.71-.56.76-1.52.07-2.37l-2.48-2.99c-.7-.85-1.63-1.02-2.33-.43l-17.92,15.16c-.69.59-.75,1.47-.13,2.21Z"/><path class="d" d="M390.42,138.82l1.66,2.34c.55.78,1.36.94,2.11.43l12.75-8.86c-2.32,5.35-4.96,10.63-7.59,15.69-.77,1.49-.86,2.34-.03,3.69l1.24,2.03c.78,1.29,2.03,1.66,3.27.93l19.57-11.54c.78-.46.93-1.32.38-2.23l-1.66-2.72c-.55-.91-1.38-1.17-2.15-.69l-13.03,8.15c2.69-5.08,5.16-10.27,7.58-15.64.7-1.6.65-2.51-.39-3.98l-1.64-2.31c-1.02-1.43-2.32-1.76-3.49-.9l-18.27,13.5c-.73.54-.83,1.36-.3,2.11Z"/><path class="d" d="M405.43,162.55c.54.97,1.04,1.95,1.57,2.93.46.87,1.29,1.15,2.1.73l7.74-4.07c1.38,2.55,2.63,5.13,3.91,7.71.75,1.5,1.99,2.08,3.39,1.42l.14-.07c1.38-.65,1.7-2,.94-3.53-1.3-2.62-2.57-5.25-3.97-7.85l5.63-2.96c1.85,3.41,3.47,6.87,5.18,10.31.44.96,1.1,1.21,1.92.82l1.92-.9c.86-.4,1.05-1.06.6-2.04l-3.62-7.34-3.85-7.3c-.74-1.34-1.96-1.77-3.11-1.13l-19.93,11.13c-.79.44-1.03,1.26-.54,2.12Z"/><path class="d" d="M415.42,182.65l1.39,2.81c.39.79,1.2,1.05,2.01.65l21.15-10.19c.82-.4,1.15-1.09.82-1.74l-.58-1.14-.29-.57c-.09-.18-.19-.37-.33-.68-.43-.93-1.27-1.31-2.1-.93l-21.36,9.73c-.83.38-1.11,1.2-.72,2.06Z"/><path class="d" d="M420.47,192.88c.36.8.87,1.52,1.3,2.29.45.75,1.22.94,2.01.49l13.46-7.73c-3.16,4.47-6.2,9.17-9.1,14.09-.86,1.46-.87,2.21-.04,3.42l1.27,1.79c.8,1.14,2.02,1.35,3.18.51l18.46-13.25c.74-.53.94-1.23.52-1.82l-1.25-1.76c-.42-.59-1.16-.64-1.91-.14l-12.81,8.5c1.34-2.32,2.87-4.68,4.39-6.97,1.53-2.29,3.09-4.52,4.67-6.7.94-1.3,1.11-1.98.48-3.01l-.98-1.62c-.53-1.04-1.59-1.27-2.87-.6l-20.1,10.59c-.8.42-1.06,1.18-.69,1.93Z"/><path class="d" d="M434.77,214.55l1.98,2.39c.56.68,1.4.74,2.09.15l17.97-15.1c.69-.59.85-1.35.39-1.9l-1.64-1.96c-.46-.55-1.25-.55-1.97,0l-18.57,14.37c-.72.56-.82,1.38-.26,2.05Z"/><path class="d" d="M445.6,226.78l2.13,2.21c.63.67,1.44.61,2.08-.06l13.86-14.51,3.71,3.27c.56.5,1.19.4,1.78-.29l1.39-1.6c.62-.72.63-1.32.09-1.8-3.73-3.06-6.92-6.69-10.31-10.1-.45-.56-1.04-.56-1.76.06l-1.59,1.4c-.68.6-.8,1.24-.32,1.82l3.42,3.52-14.44,13.94c-.65.63-.68,1.47-.05,2.13Z"/><path class="d" d="M457.98,238.09l5.63,4.29c.95.7,1.85,1.47,2.84,2.11l2.97,1.93c.74.48,1.38.36,1.9-.44l1.12-1.71c.52-.79.38-1.43-.33-1.89-1.37-.93-2.83-1.74-4.13-2.77l-3.95-3.02,3.76-4.89,2.8,2.14c.93.72,1.85,1.46,2.86,2.06,1.14.74,2.37.49,3.2-.77l.08-.13c.84-1.26.61-2.45-.49-3.15-.98-.58-1.86-1.3-2.76-1.99l-2.7-2.07,3.48-4.53,3.49,2.68c1.14.92,2.45,1.62,3.66,2.44.63.41,1.22.25,1.74-.54l1.12-1.71c.52-.79.44-1.39-.17-1.78l-2.46-1.57c-.82-.53-1.55-1.17-2.33-1.75l-4.64-3.53c-.86-.61-1.86-.44-2.71.58l-14.2,17.05c-.85,1.01-.8,2.22.24,2.97Z"/><path class="d" d="M351.74,163.71c3.02,4.05,7.14,5.07,11.45,2.21l4.11-2.78c.97-.65,1.18-1.42.59-2.24-1.29-1.78-2.51-3.61-3.83-5.35-.57-.75-1.43-.81-2.25-.19l-1.24.94c-.78.6-.96,1.42-.4,2.15.57.72,1.1,1.49,1.64,2.25l-1.44,1.04c-1.92,1.39-3.37,1.1-4.88-.82-1.51-1.96-1.15-3.94.98-5.64l7.68-6.1c2.07-1.65,4.02-1.41,5.67.75,1.67,2.13,1.38,3.75-.45,5.06l-.37.27c-.46.33-.56.79-.26,1.21l2.23,3.14c.27.4.77.48,1.24.17l.44-.3c2.15-1.45,3.33-3.3,3.46-5.4.12-2.08-.64-4.56-2.55-6.97-.97-1.27-2.01-2.29-3.09-3.04-1.1-.73-2.26-1.17-3.41-1.34-2.32-.34-4.65.44-6.9,2.36l-6.88,5.88c-2.24,1.92-3.44,4.07-3.67,6.23-.12,1.08.03,2.14.38,3.23.34,1.11.92,2.21,1.75,3.28Z"/><path class="d" d="M358.74,172.94l1.05,1.6c.45.74,1.03.89,2.1.54l5.13-1.63c1.31,2.08,2.53,4.25,3.75,6.42l-3.93,3.65c-.83.75-.97,1.35-.57,2.13l1.08,2.05c.43.81,1.15.95,1.95.53.34-.17.69-.47,1.3-1.01,5.3-4.82,10.58-9.83,15.67-14.92,1.42-1.41,1.64-2.41.77-3.94-.62-1.06-1.19-2.16-1.85-3.19-.91-1.49-1.89-1.79-3.82-1.24-6.94,1.93-13.83,4.09-20.62,6.44-.77.28-1.2.45-1.52.65-.76.5-.99,1.18-.51,1.91ZM371.75,171.91c3.45-1.05,6.95-2.08,10.42-3.02-2.56,2.57-5.14,5.11-7.75,7.6-.87-1.54-1.74-3.1-2.67-4.58Z"/><path class="d" d="M369.95,192.79l1.03,2.07c.35.71,1.08.91,1.9.52l14.42-6.88c-2.1,2.58-4.22,5.13-6.36,7.63-.78.93-.96,1.53-.63,2.25.17.37.53.85.89,1.05.39.24.87.36,1.51.44,3.55.39,7.06.69,10.54.92l-14.38,7.14c-.81.4-1.01,1.3-.5,2.32l1.47,2.94c.51,1.02,1.33,1.39,2.13.95l19.97-10.83c1.23-.67,1.59-1.99.89-3.39l-1.1-2.21c-.77-1.55-1.35-1.95-3.03-2.02-3.47-.15-7.02-.47-10.52-.72,2.18-2.53,4.34-5.11,6.48-7.73,1.01-1.24,1.13-1.92.46-3.31l-1.06-2.14c-.64-1.29-1.82-1.64-3.07-1.01l-20.3,10.2c-.81.41-1.1,1.11-.76,1.79Z"/><path class="d" d="M385.55,223.12c3.01,5.37,6.74,10.29,10.27,15.32.67.93,1.39,1.16,2.14.59l1.63-1.24c.75-.57.76-1.34.12-2.25-2.51-3.56-5.09-7.08-7.48-10.72l5.19-3.34c1.69,2.62,3.55,5.13,5.33,7.69,1.04,1.47,2.42,1.9,3.63,1l.12-.09c1.21-.91,1.25-2.35.24-3.78-1.73-2.49-3.55-4.93-5.19-7.48l4.81-3.09c2.18,3.32,4.54,6.52,6.82,9.77.59.83,1.27,1,2.02.43l1.63-1.24c.75-.57.8-1.28.23-2.09-3.03-4.36-6.29-8.58-8.87-13.24-.74-1.24-1.92-1.59-3.06-.92l-19.12,11.25c-1.14.67-1.33,1.99-.47,3.43Z"/><path class="d" d="M406.81,252.64c5.9,6.19,11.04,7.28,14.6,3.57l.61-.62c3.05-3.16,2.34-6.06-.2-10-1.17-1.86-2.43-3.61-3.48-5.54-.92-1.69-1.16-2.75-.03-3.71l.46-.39c1.71-1.46,2.98-1.1,5.16,1.41,2.28,2.37,2.47,3.76.98,5.17l-.58.55c-.41.39-.42.93.07,1.43l3.16,3.27c.48.5,1.02.51,1.47.05l.58-.6c3.42-3.54,2.79-7.49-2.4-12.89-4.63-5.45-9.23-6.59-13.28-3.44l-.65.52c-3.51,2.76-3.1,5.65-.77,9.82,1.1,1.97,2.18,3.99,3.47,5.84,1.1,1.69,1.43,2.69.34,3.74l-.47.44c-1.59,1.51-3.1,1.15-5.75-1.62-2.51-2.9-2.65-4.5-1.1-5.81l.66-.56c.46-.39.46-.93.02-1.45l-3.11-3.76c-.43-.53-1.02-.64-1.5-.27l-.77.61c-3.87,3.01-3.32,7.44,2.51,14.27Z"/><path class="e" d="M504.72,357.09l4.81.97c1.43.28,2.45-.14,2.61-1.03l1.61-9.29c4.31.79,8.67,1.24,13.01,1.81l-1.08,9.37c-.11.9.75,1.62,2.2,1.79,1.62.17,3.24.43,4.87.52,1.45.09,2.37-.46,2.44-1.37l1.77-23.41c.07-.91-.66-1.55-1.96-1.63-1.45-.08-2.89-.31-4.33-.47-1.29-.16-2.18.34-2.29,1.25l-1.02,8.88c-4.25-.56-8.51-1-12.73-1.77l1.53-8.8c.15-.9-.56-1.65-1.83-1.91l-4.28-.86c-1.27-.26-2.16.17-2.35,1.06l-4.93,22.95c-.19.89.54,1.66,1.97,1.95Z"/><path class="e" d="M552.57,362.53c4.02-.06,7.09-1.09,8.88-2.7l2.61,1.59c1.43.86,3.19.88,4.53-.08.13-.1.31-.21.4-.31l.19-.3.39-.61c.6-.94.49-2.11-.24-2.98-.37-.4-.52-.81-1.31-1.2l-.47-7.63c-.28-4.12-4.74-6.17-12.62-6-1.9.02-3.57.23-5.03.42-1.46.19-2.7.5-3.71.93-2.02.87-3.13,2.24-3.22,4.07v.3c-.04.53.33.85,1.11.89l6.06.26c.72.03,1.05-.27,1.05-.72v-.27c.02-1.14,1.16-1.64,3.77-1.69,2.66-.06,3.82.52,3.86,1.92l.06,2.57c-1.73-.26-3.67-.37-5.83-.33-.96.01-1.86.07-2.69.12-.84.03-1.61.08-2.32.17-1.42.17-2.6.47-3.55.9-1.9.85-2.87,2.22-2.97,4.13l-.02.49c-.09,1.81.9,3.29,2.81,4.34.96.53,2.14.95,3.53,1.25,1.39.32,2.98.5,4.74.44ZM550.38,356.43v-.38c.02-1.32,1.44-2.06,4.35-2.11,1.46-.03,2.87.09,4.22.28l.04,1.7c.04,1.36-1.77,2.39-4.47,2.45-2.75.05-4.17-.61-4.15-1.94Z"/><path class="e" d="M578.35,361.72c3.77-.05,6.01-2.18,6.13-6.52l.02-.83c.01-.61-.28-1.02-.71-1.02h-2.74c-.4-.02-.67.36-.67.96v.61c0,1.56-.55,2.28-2.1,2.33-1.51.04-2.19-.89-2.24-2.86l-.15-5.37c-.06-2.01.6-3,2.21-3.05,1.64-.06,2.24.78,2.25,2.36v.45c0,.61.28.99.69.99h2.8c.44.02.75-.4.76-1.01v-.72c.1-4.29-2.34-6.56-6.58-6.51-4.42.07-7.05,3.05-6.78,8.04l.23,4.65c.27,4.91,2.94,7.55,6.87,7.49Z"/><path class="e" d="M587.85,361.38c.72.04,1.48.02,2.17.09.53.04.92-.46.98-1.33l1.46-23.2c.09-1.32-.52-2.24-1.53-2.31l-1.35-.04c-1.03-.04-1.73.81-1.78,2.13l-.84,23.23c-.03.87.32,1.41.87,1.43ZM597.69,362.06c1.09-.84,1.63-2.58,1.09-4.19-.71-2.09-1.47-4.18-2.27-6.29,1.13-1.81,2.29-3.62,3.49-5.42.52-.79.68-1.23.74-1.75.1-.83-.19-1.35-.89-1.42l-1.69-.17c-.75-.08-1.17.29-1.67,1.08-1.07,1.69-2.16,3.49-3.19,5.22-.54.91-.76,1.84-.82,2.75-.07,1.02.05,1.9.44,2.88.78,2,1.55,3.95,2.22,5.99.52,1.55,1.58,2.08,2.54,1.33Z"/><path class="e" d="M604.15,363.5c1.5.28,2.84-.45,3.86-1.85l.62,1.85c.33,1.01.94,1.22,1.65.45l.93-1c.73-.77.96-1.92.63-2.92l-.46-1.38,1.68-7.46c.91-3.98-.58-6.75-4.44-7.38-1.81-.36-3.34-.06-4.44.76-1.1.82-1.78,2.15-2.03,3.97l-.04.3c-.07.53.06.85.41.9l2.76.38c.32.05.51-.18.58-.63l.04-.26c.18-1.12.78-1.51,1.98-1.29,1.22.22,1.63.91,1.37,2.28l-.48,2.53c-.69-.43-1.51-.73-2.45-.9-3.39-.58-5.26,1.11-5.73,4.88l-.06.49c-.47,3.63.97,5.84,3.63,6.28ZM604.28,357.28l.06-.37c.21-1.31.91-1.9,2.13-1.68.61.11,1.17.36,1.69.69l-.32,1.67c-.26,1.34-1.17,2.18-2.23,1.99-1.08-.2-1.54-.98-1.33-2.29Z"/><path class="e" d="M616.85,365.95l1.5.47c.39.12.72-.22.94-.94l.75-2.35c.2-.61.08-1.04-.26-1.15l-.91-.28c-.57-.18-.68-.61-.39-1.59l2.45-8.36,1.86.58c.37.11.75-.21.93-.75l.77-2.42c.17-.54.03-1.02-.35-1.14l-1.95-.61.85-2.91c.37-1.26.08-2.23-.77-2.43l-1.33-.35c-.85-.22-1.58.4-1.91,1.69l-.76,2.93-1.28-.34c-.39-.11-.76.23-.9.78l-.59,2.47c-.13.55.04,1.02.41,1.12l1.23.33-2.26,8.76c-1.01,3.94-.5,5.74,1.98,6.47Z"/><path class="e" d="M621.27,367.37l1.75.63c.44.15.92-.24,1.23-1.06l3.69-9.86c.7-1.88,1.73-2.7,2.92-2.19,1.19.49,1.41,1.76.64,3.61l-4.02,9.73c-.33.81-.26,1.41.19,1.58.58.21,1.13.47,1.69.74.44.21.93-.15,1.29-.94l4.37-9.66c2.05-4.46,1.43-7.92-1.4-9-1.22-.48-2.42-.42-3.54.39l2.31-6.17c.47-1.24.19-2.26-.69-2.57l-1.16-.41c-.88-.32-1.74.3-2.16,1.55l-7.4,22.04c-.28.83-.15,1.44.29,1.6Z"/><path class="e" d="M636.62,374.6c1.47.86,2.99.93,4.51.26,1.51-.68,2.95-2.02,4.29-4.22l2.34-3.85c1.31-2.15,1.87-4.19,1.58-5.85-.29-1.67-1.37-3.07-3.12-4.09-3.57-1.81-6.88-.45-9.06,4.19l-1.94,4.07c-2.16,4.58-1.57,8.01,1.41,9.5ZM638.71,370.73c-1.15-.61-1.27-1.78-.38-3.51l2.53-4.87c.87-1.68,1.98-2.28,3.24-1.62,1.26.73,1.41,1.99.47,3.64l-2.7,4.78c-.95,1.68-2.05,2.24-3.16,1.58Z"/><path class="e" d="M644.42,378.73c.56.32,1.05.68,1.55,1.04.4.28.94.01,1.43-.7l5.96-8.67c1.13-1.66,2.31-2.17,3.38-1.44,1.07.7.91,1.99-.29,3.6l-6.25,8.47c-.52.7-.61,1.31-.23,1.6l1.42,1.09c.38.28.94.04,1.48-.64l6.59-8.31c3.07-3.83,3.24-7.26.7-9.17-1.42-.97-3.05-.99-4.67,0l.05-2.19c0-1.09-.69-1.54-1.69-1.1l-1.28.54c-.98.41-1.57,1.47-1.55,2.56v1.52s-6.53,10.2-6.53,10.2c-.47.73-.5,1.34-.07,1.6Z"/><path class="d" d="M532.53,224.21l1.53.32c.68.15,1.1-.19,1.48-1.22.62-1.64,1.23-3.29,1.83-4.99,1.79.19,3.57.41,5.35.66l.43,5.33c.1,1.1.41,1.63,1.1,1.64l1.83.07c.72.03,1.11-.52,1.17-1.43.02-.38-.03-.83-.13-1.64-.95-7.05-1.65-13.87-2.04-21.04-.1-1.97-.43-2.71-1.34-2.83l-1.93-.23c-.92-.1-1.43.54-2.04,2.42-2.2,6.61-4.68,13.18-7.43,19.72-.31.75-.48,1.18-.55,1.55-.19.89.05,1.52.75,1.66ZM538.92,213.62c1.12-3.39,2.17-6.79,3.16-10.19.06,3.53.19,7.07.38,10.62l-3.54-.43Z"/><path class="d" d="M550.7,226.27c.73.05,1.45.11,2.19.05.62-.03,1.03-.65,1.02-1.55l-.12-23.47c0-.91-.32-1.5-.79-1.47-.55.06-1.1,0-1.65-.04-.46-.04-.79.55-.83,1.46l-.81,23.46c-.03.91.36,1.54.98,1.58Z"/><path class="d" d="M525.54,269.16c1.02.2,2.03.43,3.05.61.87.11,1.55-.42,1.68-1.31l3.59-23.2c.14-.9-.25-1.55-.97-1.64-.84-.15-1.68-.35-2.51-.52-.71-.15-1.3.35-1.47,1.24l-4.51,23.04c-.18.89.28,1.6,1.14,1.78Z"/><path class="d" d="M536.8,270.82l2.61.34c.87.11,1.47-.48,1.54-1.37l1.27-15.47c1.9,5.1,4.05,10.23,6.46,15.37.71,1.51,1.33,2.04,2.79,2.11l2.2-.06c1.39-.04,2.26-.93,2.23-2.37l-.38-22.71c-.02-.91-.48-1.46-1.21-1.44l-2.18.07c-.73.02-1.19.52-1.21,1.44l-.29,15.37c-2.29-5.09-4.33-10.17-6.13-15.21-.54-1.5-1.01-2.02-2.22-2.07l-1.89-.25c-1.17-.16-1.96.62-2.13,2.05l-2.67,22.56c-.11.9.37,1.54,1.21,1.64Z"/><path class="d" d="M562.64,271.5c1.01-.02,2.18-.1,3.26-.15.98-.05,1.58-.69,1.54-1.59l-.43-8.74c2.86-.17,5.74-.24,8.62-.3,1.68-.04,2.73-.93,2.72-2.49v-.15c-.02-1.51-1.11-2.36-2.82-2.32-2.93.06-5.86.13-8.77.31l-.31-6.35c3.8-.24,7.67-.27,11.51-.37,1.06-.03,1.58-.49,1.57-1.41v-2.12c-.01-.94-.55-1.42-1.63-1.39l-8.2.2-8.13.41c-1.09.02-1.69.86-1.63,2.19l1.16,22.8c.04.91.62,1.5,1.54,1.48Z"/><path class="d" d="M585.05,270.95c1.12,0,2.24.03,3.36.08.95.03,1.6-.55,1.64-1.46l.83-23.46c.03-.91-.65-1.54-1.7-1.58-1.25-.05-2.49-.09-3.72-.09-1.05,0-1.75.59-1.76,1.5l-.22,23.47c0,.91.62,1.52,1.57,1.52Z"/><path class="d" d="M597.36,271.45l2.85.2c.95.07,1.59-.46,1.67-1.36l1.32-15.47c2.59,5.29,5,10.58,7.21,15.87.65,1.58,1.26,2.17,2.83,2.39l2.36.34c1.5.21,2.58-.51,2.81-1.92l3.65-22.42c.15-.9-.43-1.58-1.49-1.72l-3.19-.45c-1.07-.15-1.81.32-1.93,1.22l-2.04,15.24c-2.21-5.37-4.62-10.52-7.21-15.8-.78-1.56-1.5-2.16-3.26-2.27l-2.78-.2c-1.72-.12-2.79.68-2.87,2.12l-1.36,22.68c-.05.91.51,1.52,1.42,1.58Z"/><path class="d" d="M625.39,275.1l3.31.73c.93.21,1.69-.25,1.89-1.13l5.18-22.9c.2-.89-.37-1.63-1.43-1.87l-3.75-.82c-1.06-.19-1.89.27-2.06,1.16l-4.43,23.05c-.17.89.34,1.6,1.28,1.77Z"/><path class="d" d="M642.7,279.41l3.21.99c.95.29,1.71-.1,1.99-.97l6.19-19.09c2.24.67,4.42,1.53,6.64,2.29,1,.36,1.72.09,2.04-.76l.74-1.99c.33-.89-.07-1.51-1.1-1.88l-5.14-1.82-5.2-1.62c-3.46-1.12-6.98-2.01-10.48-2.94-1.05-.28-1.73.02-1.96.94l-.5,2.06c-.22.88.23,1.51,1.25,1.78l6.73,1.79-5.54,19.29c-.25.87.19,1.64,1.15,1.94Z"/><path class="d" d="M660,285.46c2.39.96,4.78,1.93,7.11,3.04,2.34,1.08,4.71,2.1,6.98,3.31.85.44,1.52.27,1.95-.58l.93-1.82c.43-.84.16-1.49-.71-1.94-1.69-.9-3.43-1.71-5.18-2.49l-5.24-2.38,2.44-5.67,7.99,3.64c1.51.74,2.87.47,3.55-.89l.07-.14c.67-1.35.07-2.66-1.48-3.41l-8.18-3.73,2.26-5.25,5.68,2.58c1.9.85,3.78,1.74,5.62,2.7.95.48,1.67.34,2.1-.5l.93-1.82c.43-.84.11-1.52-.86-2.01-2.58-1.37-5.27-2.54-7.93-3.76-2.65-1.25-5.36-2.36-8.09-3.45-1.48-.6-2.71-.2-3.19,1.04l-8.06,20.67c-.48,1.24.03,2.34,1.33,2.87Z"/><path class="d" d="M527.76,315.92c3.93.47,7.16.25,9.43-1,2.28-1.23,3.57-3.17,3.74-5.76l.32-4.95c.08-1.17-.55-1.77-1.87-1.84l-2.14-.12c-.71-.07-1.42-.17-2.13-.25l-4.27-.53c-1.22-.15-2.05.39-2.19,1.4l-.21,1.54c-.13.98.54,1.71,1.8,1.87l3.82.48-.18,1.77c-.23,2.34-1.87,3.24-5.48,2.79-3.65-.47-5.36-2.19-4.92-4.88l1.54-9.68c.43-2.62,2.32-3.78,5.53-3.37,3.21.41,4.44,1.67,4.21,3.93l-.05.45c-.06.56.29.95.94,1.03,1.6.25,3.22.29,4.83.38.61.03,1.06-.32,1.1-.89l.03-.53c.17-2.59-.75-4.63-2.55-6.06-1.8-1.42-4.45-2.56-7.91-2.96-1.8-.23-3.45-.23-4.94-.02-1.5.24-2.79.49-3.94,1.09-2.27,1.13-3.84,3.16-4.43,6.05l-1.78,8.87c-.59,2.89.19,5.39,2.2,7.38,1.99,2.06,5.26,3.3,9.47,3.83Z"/><path class="d" d="M545.46,316.98l2.89.14c1.28.06,1.95-.33,2.34-1.41l1.9-5.25,10.26-.26,2.09,5.16c.22.54.5.91.89,1.14.43.23.67.32,1.15.29l2.36-.12c.93-.05,1.37-.64,1.33-1.55-.02-.38-.14-.83-.38-1.61-1.09-3.43-2.21-6.85-3.38-10.27l-1.78-5.13c-.61-1.71-1.37-3.43-2.02-5.15-.73-1.91-1.63-2.57-3.6-2.51l-4.15.11c-1.97.05-2.83.75-3.47,2.7-2.35,6.95-4.98,13.71-7.88,20.55-.32.78-.48,1.23-.5,1.61-.05.91.59,1.51,1.92,1.57ZM554.14,305.57c1.15-3.52,2.23-7.05,3.25-10.57,1.18,3.47,2.42,6.93,3.72,10.39l-6.97.18Z"/><path class="d" d="M575.12,316.44l2.3-.05c.79-.02,1.28-.6,1.27-1.51l-.18-15.98c1.45,2.97,2.83,5.99,4.17,8.99.5,1.1.96,1.52,1.74,1.52.91,0,1.32-.42,1.85-1.49,1.43-2.96,2.91-5.93,4.46-8.89l-.7,16.04c-.04.91.42,1.49,1.19,1.52.74.01,1.47.09,2.2.13.76.05,1.28-.48,1.34-1.39l1.54-22.67c.1-1.4-.71-2.36-2.1-2.46-.73-.06-1.46-.09-2.19-.11-1.53-.06-2.1.26-2.84,1.71-1.56,3-3.05,5.94-4.5,9-1.35-3.05-2.76-6.1-4.22-9.15-.7-1.44-1.25-1.85-2.79-1.8l-2.39.06c-1.43.03-2.25.96-2.2,2.36l.73,22.71c.03.91.54,1.47,1.3,1.45Z"/><path class="d" d="M601.02,317.36l3.04.31,3,.42c2,.27,4,.55,5.96.94.73.13,1.21-.24,1.38-1.17l.37-2.01c.17-.93-.15-1.45-.91-1.59-2.93-.59-5.95-.91-8.92-1.37l.75-6.13,6.86.99c1.3.24,2.3-.47,2.57-1.96l.03-.15c.27-1.49-.46-2.51-1.8-2.75l-7.05-1.01.7-5.67c3.27.5,6.57.86,9.81,1.5.83.15,1.36-.22,1.54-1.15l.37-2.01c.17-.93-.21-1.46-1.06-1.61-2.29-.45-4.6-.78-6.92-1.1l-3.47-.48-3.5-.36c-1.27-.13-2.14.61-2.26,1.93l-2.06,22.09c-.12,1.32.49,2.22,1.59,2.34Z"/><path class="d" d="M624.24,321.92c2.63.69,4.82.51,6.55-.34,1.73-.89,3.04-2.59,3.82-5.04l.26-.83c1.33-4.17,0-6.23-3.18-8.07l-4.5-2.48c-1.32-.75-1.96-1.34-1.62-2.8l.14-.59c.5-2.16,1.6-2.8,4.28-2.06,2.66.7,3.36,1.75,2.8,3.72l-.21.77c-.15.55.04.99.58,1.13l3.44,1.06c.52.16.93-.11,1.12-.72l.25-.8c.74-2.35.63-4.27-.48-5.86-1.09-1.63-3.22-2.79-6.43-3.62-3.05-.86-5.6-.56-7.43.39-1.85.98-3.01,2.76-3.51,5.28l-.16.82c-.86,4.37.7,6.29,3.86,7.87,1.51.72,2.95,1.61,4.41,2.4,1.29.73,1.83,1.34,1.42,2.8l-.17.62c-.6,2.11-1.67,2.7-4.16,2.04-2.48-.69-3.18-1.65-2.71-3.67l.2-.85c.14-.59-.07-.98-.55-1.09l-3.4-.76c-.48-.11-.87.2-.99.79l-.19.97c-.48,2.4-.21,4.32.86,5.78.53.73,1.27,1.35,2.22,1.86.96.49,2.12.91,3.49,1.3Z"/><path class="e" d="M660.45,391.82l1.12,1.13c.35.33.95.17,1.63-.45l6.96-6.36,1.64,1.88c.56.62,1.12,1.23,1.6,1.89l-7.31,5.95c-.7.57-1,1.19-.72,1.54l.96,1.18c.3.34.94.2,1.66-.34l18.79-14.07c.74-.55,1-1.21.61-1.68l-1.29-1.61c-.38-.48-1.09-.41-1.8.16l-6.93,5.64c-.51-.7-1.09-1.36-1.69-2.01l-1.74-1.99,6.6-6.02c.66-.6.89-1.34.43-1.78l-1.48-1.51c-.44-.45-1.13-.3-1.78.34l-16.71,16.49c-.65.64-.88,1.27-.55,1.61Z"/><path class="e" d="M669.39,403.8c.32.5.82.82,1.44.97.6.16,1.3.18,2.11.03l-1.07,1.5c-.59.81-.4,1.28.61,1.2l1.3-.09c.98-.05,2.01-.62,2.63-1.44l.79-1.12,6.72-3.65c1.81-.98,2.99-2.11,3.51-3.37.48-1.24.46-2.7-.5-4.07-.88-1.33-1.91-2.12-3.18-2.25-1.28-.13-2.69.35-4.19,1.41l-.25.17c-.43.3-.6.6-.42.83.48.61.89,1.25,1.28,1.9.14.23.43.19.81-.06l.22-.14c.95-.62,1.6-.5,2.16.36.59.87.29,1.57-.92,2.29l-2.21,1.32c-.04-.7-.34-1.36-.76-2.03-1.47-2.43-3.87-2.38-6.95-.16l-.4.28c-2.98,2.13-3.78,4.33-2.73,6.11ZM674.17,399.88l.32-.21c1.11-.73,1.97-.7,2.52.15.27.43.45.9.46,1.42l-1.46.87c-1.15.69-2.32.7-2.8-.02-.48-.74-.15-1.5.96-2.22Z"/><path class="e" d="M674.39,413.24c.55,1.09,1.32,1.82,2.59,2.07,1.26.26,2.94.07,4.97-.66l.78-.28c.57-.2.89-.54.78-.82l-.67-1.8c-.1-.27-.51-.3-1.07-.08l-.56.23c-1.42.57-2.3.5-2.72-.42-.41-.91.29-1.7,2.08-2.52l4.9-2.22c1.83-.83,2.91-.78,3.39.29.49,1.09-.05,1.8-1.54,2.4l-.42.17c-.56.23-.85.56-.75.84l.71,1.89c.11.29.59.36,1.16.15l.68-.24c2.03-.73,3.4-1.7,4.11-2.89.7-1.19.83-2.62.13-4.06-1.28-3.11-4.82-3.61-9.23-1.33l-4.16,2.1c-4.41,2.27-6.09,4.88-5.16,7.18Z"/><path class="e" d="M676.99,418.94l.47,1.4c.11.35.66.46,1.5.22l22.37-6.32c1.27-.35,2.01-1.14,1.73-1.92l-.34-1.04c-.26-.79-1.25-1.05-2.5-.63l-22.08,7.26c-.83.27-1.26.68-1.15,1.03ZM678.81,425.6c1.08.5,2.88.41,4.29-.41,1.82-1.08,3.63-2.23,5.45-3.44,2.01.29,4.03.64,6.08,1.03.89.17,1.35.17,1.87.07.82-.16,1.24-.53,1.12-1.09l-.28-1.35c-.12-.6-.57-.82-1.47-.96-1.97-.29-3.92-.54-5.85-.74-1.01-.11-1.95.03-2.82.27-.99.27-1.79.63-2.62,1.2-1.7,1.16-3.39,2.26-5.1,3.3-1.35.82-1.62,1.68-.67,2.12Z"/><path class="e" d="M679.13,430.53c.09,1.18,1.13,1.98,2.74,2.42l-1.57.91c-.9.49-.96,1.01-.03,1.38l1.2.49c.93.39,2.1.31,2.99-.18l1.22-.69,7.64-.44c2.06-.12,3.63-.64,4.67-1.58,1.03-.93,1.39-2.25,1.25-3.9-.38-3.16-2.7-4.49-6.28-3.84l-.3.05c-.52.09-.8.28-.76.57l.35,2.22c.04.26.33.35.78.29l.26-.04c1.13-.15,1.71.21,1.78,1.24.1,1.04-.45,1.54-1.85,1.68l-2.56.25c.23-.65.32-1.37.25-2.16-.45-2.77-2.44-3.71-6.2-3.02l-.48.09c-3.57.66-5.44,2.27-5.09,4.27ZM685.09,429.04l.38-.05c1.3-.18,2.15.18,2.21,1.19.04.5-.06,1-.24,1.48l-1.7.17c-1.36.13-2.4-.35-2.47-1.2-.05-.88.49-1.4,1.82-1.59Z"/><path class="e" d="M680.11,440.9c-.01.45-.06.9-.08,1.34-.02.35.39.55,1.14.58l2.46.12c.64.03,1.03-.16,1.05-.47l.05-.83c.05-.52.41-.7,1.43-.68l8.71.19c0,.58-.07,1.16-.09,1.74-.02.35.39.61.95.63l2.53.12c.57.03,1-.2,1.02-.57.02-.62.09-1.24.09-1.85l3.03.06c1.32.03,2.11-.46,2.11-1.25v-1.24c0-.79-.79-1.28-2.12-1.25l-3.03.06c0-.39.02-.79-.02-1.17-.02-.36-.45-.59-1.02-.57l-2.54.1c-.57.02-.97.27-.95.61.04.37.03.74.02,1.11l-9.05.17c-4.04.09-5.75.89-5.7,3.06Z"/><path class="e" d="M679.91,444.88l-.18,1.63c-.04.41.46.74,1.33.83l10.47,1.11c1.99.21,3.04.94,2.92,2.12-.19,1.18-1.37,1.65-3.36,1.36l-10.42-1.51c-.86-.12-1.43.06-1.49.5l-.23,1.64c-.1.44.37.8,1.23.96l10.43,1.91c2.41.45,4.43.36,5.86-.21,1.4-.57,2.26-1.62,2.47-3.01.23-1.22-.29-2.29-1.31-3.11l6.55.69c1.32.14,2.24-.34,2.33-1.21l.12-1.14c.12-.87-.77-1.5-2.08-1.59l-23.2-1.55c-.88-.06-1.39.18-1.43.58Z"/><path class="e" d="M676.85,459.87c-.86,2.98,1.18,5.67,6.03,7.29l4.28,1.39c4.81,1.6,8.12.22,9.19-3.51.44-1.84.15-3.47-.89-4.75-1.11-1.28-2.93-2.2-5.41-2.71l-4.41-.91c-2.5-.52-4.52-.44-5.95.11-1.51.56-2.49,1.59-2.84,3.09ZM681.1,461c.27-1.17,1.42-1.51,3.29-1.05l5.33,1.31c1.84.45,2.67,1.35,2.36,2.65-.3,1.32-1.57,1.72-3.37,1.19l-5.28-1.51c-1.88-.54-2.6-1.43-2.34-2.58Z"/><path class="e" d="M674.78,467.91c-.21.57-.36,1.15-.62,1.72-.19.45.19.92,1,1.24l9.8,3.84c1.87.73,2.63,1.76,2.15,2.97-.47,1.19-1.71,1.37-3.56.58l-9.67-4.16c-.8-.34-1.42-.28-1.63.18l-.8,1.73c-.21.46.15.96.94,1.33l9.6,4.5c4.41,2.11,7.91,1.4,9.17-1.6.64-1.61.31-3.2-1.02-4.56.72-.14,1.43-.29,2.11-.45,1.04-.25,1.34-.98.68-1.85l-.82-1.1c-.62-.84-1.79-1.18-2.84-.93l-1.48.32-11.42-4.03c-.82-.29-1.42-.19-1.57.26Z"/><path class="d" d="M758.83,298.26l2.15,2.23c.95.98,1.71,1.27,2.8.83l5.26-1.94c2.61,2.95,5.21,5.9,7.63,9.04l-2.83,4.84c-.61,1-.49,1.82.37,2.91.76.94,1.48,1.93,2.19,2.93.84,1.17,1.72,1.43,2.46.9.31-.22.58-.61,1.05-1.34,1.97-3.2,3.92-6.49,5.78-9.78,1.85-3.28,3.65-6.62,5.41-10,.98-1.87.76-3.25-.98-5.42-1.2-1.54-2.5-2.97-3.76-4.43-1.82-2.08-3.13-2.53-5.13-1.88-7.21,2.27-14.38,4.93-21.34,7.74-.79.33-1.22.54-1.49.8-.65.64-.56,1.54.43,2.56ZM773.87,297.54c3.55-1.25,7.15-2.45,10.78-3.6-1.7,3.34-3.51,6.73-5.34,10.03-1.73-2.24-3.6-4.31-5.44-6.43Z"/><path class="d" d="M781.75,326.7l2.38,3.7c.67,1.05,1.63,1.43,2.4.95l19.91-12.44c.77-.48.79-1.59.03-2.78l-2.69-4.18c-.76-1.19-1.82-1.58-2.56-1.07l-19.38,13.25c-.76.52-.75,1.51-.09,2.56Z"/><path class="d" d="M727.46,331.19c.81.8,1.53,1.69,2.29,2.53.64.72,1.52.81,2.2.21l17.62-15.51c.68-.6.65-1.56-.09-2.4-.88-.98-1.72-2-2.65-2.93-.77-.8-1.73-.92-2.39-.29l-17,16.19c-.66.63-.65,1.51.02,2.2Z"/><path class="d" d="M735.63,340.65l1.8,2.27c.6.76,1.43.89,2.15.34l12.36-9.39c-2.09,5.55-4.44,10.97-6.9,16.13-.72,1.53-.79,2.39.08,3.74l1.3,2.04c.82,1.29,2.09,1.65,3.32.91l19.42-11.8c.78-.47.89-1.36.28-2.31l-1.82-2.85c-.61-.95-1.46-1.23-2.22-.73l-12.83,8.47c2.55-5.25,4.73-10.56,6.86-16.15.62-1.67.55-2.62-.62-4.08l-1.83-2.31c-1.13-1.43-2.48-1.72-3.59-.8l-17.58,14.39c-.7.58-.77,1.41-.19,2.13Z"/><path class="d" d="M751.44,364.29c.58.97,1.08,1.98,1.58,3,.45.9,1.28,1.2,2.09.8l7.81-3.94,2.03,4.06,1.83,4.15c.71,1.61,1.96,2.3,3.39,1.71l.14-.06c1.4-.58,1.74-1.97,1.01-3.64l-1.89-4.28-2.09-4.18,5.68-2.86c.91,1.86,1.9,3.69,2.73,5.59l2.5,5.7c.46,1.05,1.13,1.37,1.97,1.03l1.96-.8c.88-.36,1.07-1.05.6-2.13-1.21-2.73-2.34-5.49-3.65-8.17-1.34-2.66-2.64-5.35-4.04-7.97-.81-1.44-2.05-1.93-3.2-1.29l-19.93,11.13c-.79.44-1.02,1.27-.53,2.14Z"/><path class="d" d="M760.89,385.18c.39,1.08.84,2.13,1.17,3.22.29.92,1.07,1.35,1.93,1.06l22.29-7.36c.86-.28,1.21-1.19.86-2.27-.39-1.28-.91-2.52-1.36-3.78-.4-1.06-1.23-1.56-2.08-1.23l-21.95,8.31c-.85.32-1.19,1.14-.85,2.05Z"/><path class="d" d="M764.73,397.12l.74,2.81c.25.94.95,1.39,1.83,1.17l15.07-3.71c-4.04,4.27-8.44,8.33-12.74,12.1-1.26,1.11-1.64,1.87-1.4,3.46l.37,2.39c.23,1.51,1.24,2.35,2.67,2.16l22.51-3.05c.9-.12,1.36-.9,1.19-2.02l-.52-3.35c-.18-1.12-.85-1.72-1.74-1.56l-15.14,2.65c4.38-3.79,8.55-7.83,12.72-12.13,1.25-1.3,1.49-2.19,1.02-4.02l-.76-2.88c-.47-1.78-1.59-2.59-2.97-2.19l-21.83,6.29c-.87.25-1.26.99-1.03,1.89Z"/><path class="d" d="M769.82,425.3c.14,1.13.21,2.27.26,3.41.05.96.69,1.57,1.6,1.52l23.44-1.3c.91-.05,1.47-.83,1.41-1.96-.06-1.33-.15-2.66-.3-3.98-.11-1.13-.79-1.82-1.7-1.73l-23.36,2.28c-.9.09-1.44.79-1.34,1.75Z"/><path class="d" d="M770.4,443.28l-.16,3.37c-.05,1,.53,1.64,1.43,1.69l20.04,1.1-.19,3.59-.34,3.57c-.11,1.08.32,1.72,1.23,1.81l2.11.22c.94.1,1.45-.46,1.56-1.57.75-7.41.91-14.9.82-22.39-.02-1.13-.53-1.72-1.47-1.69l-2.12.07c-.91.03-1.36.64-1.33,1.74v7.16s-20.05-.29-20.05-.29c-.91-.01-1.51.62-1.52,1.63Z"/><path class="d" d="M768.89,461.66c-.41,2.56-.69,5.14-1.21,7.67-.52,2.53-.97,5.08-1.55,7.6-.23.93.09,1.54,1.01,1.76l1.99.47c.92.22,1.49-.2,1.73-1.15.45-1.87.78-3.78,1.17-5.67.37-1.89.78-3.78,1.03-5.7l6.09.98c-.2,1.47-.46,2.93-.76,4.37l-.86,4.35c-.32,1.67.29,2.95,1.75,3.28l.15.03c1.49.34,2.58-.58,2.92-2.3l.89-4.46c.31-1.48.58-2.98.78-4.49l5.64.91c-.28,2.1-.72,4.17-1.12,6.24-.43,2.07-.79,4.15-1.28,6.2-.26,1.05.05,1.72.97,1.94l1.99.47c.92.22,1.51-.26,1.77-1.33.66-2.89,1.2-5.83,1.78-8.75.59-2.92.94-5.9,1.4-8.85.23-1.61-.44-2.72-1.77-2.88l-22.02-2.69c-1.3-.16-2.26.62-2.47,2Z"/><path class="d" d="M698.3,367.43c1.51,1.88,3.24,2.96,5.18,3.19,1.92.24,3.93-.29,6.04-1.83l4-2.93c.95-.69,1.12-1.43.56-2.22l-3.94-4.99c-.55-.73-1.45-.7-2.22-.05l-1.19,1c-.76.65-.86,1.43-.33,2.13l1.65,2.1-1.39,1.11c-1.85,1.46-3.31,1.35-4.78-.48-1.58-1.78-1.32-3.72.71-5.54l7.33-6.51c1.98-1.77,3.94-1.65,5.71.35,1.69,2.07,1.49,3.64-.28,5.04l-.36.28c-.44.35-.52.8-.21,1.19.76.99,1.59,1.92,2.29,2.95.27.38.77.43,1.23.09l.43-.31c2.08-1.52,3.24-3.42,3.3-5.5.05-2.07-.88-4.41-2.8-6.76-2.1-2.37-4.38-3.76-6.68-3.96-2.35-.17-4.65.76-6.77,2.81l-6.52,6.27c-2.13,2.05-3.19,4.24-3.29,6.36-.14,2.15.59,4.28,2.33,6.21Z"/><path class="d" d="M705.19,375.76c.33.48.71.94,1.01,1.44.41.66.98.77,2.02.37l5.03-1.83c.6.96,1.25,1.91,1.83,2.88l1.68,2.97-3.99,3.54c-.85.73-1,1.27-.64,1.95l.9,1.82c.36.72,1.05.82,1.86.42.34-.17.71-.45,1.34-.96,5.49-4.53,10.93-9.38,16.02-14.38,1.43-1.39,1.66-2.37.82-3.85-.59-1.04-1.16-2.09-1.83-3.08-.92-1.44-1.9-1.7-3.8-1.1-3.44,1.08-6.84,2.21-10.19,3.41-3.4,1.22-6.76,2.5-10.08,3.84-.75.31-1.18.5-1.48.72-.74.53-.97,1.18-.5,1.84ZM717.93,374.05c3.4-1.16,6.87-2.27,10.32-3.3-2.56,2.57-5.16,5.09-7.78,7.54l-1.21-2.15c-.41-.71-.88-1.39-1.32-2.09Z"/><path class="d" d="M715.19,393.38l.8,1.83c.28.63.97.8,1.81.45l14.74-6.17c-2.19,2.35-4.57,4.68-6.92,6.9-.86.82-1.1,1.36-.86,2.02.29.77.81.96,2.01,1.03,3.26.17,6.48.45,9.77.81l-15.31,4.84c-.87.28-1.28.85-1.07,1.5.19.63.44,1.24.58,1.88.17.66.82.93,1.7.69l21.91-6.01c1.35-.37,2.02-1.43,1.66-2.73l-.65-2.02c-.45-1.42-.94-1.82-2.54-1.99-1.66-.19-3.3-.36-4.94-.5-1.68-.13-3.35-.24-5-.33,2.39-2.26,4.76-4.62,7.09-7.06,1.12-1.17,1.23-1.79.64-3.16l-.92-2.11c-.55-1.27-1.7-1.63-2.97-1.04l-20.6,9.57c-.82.38-1.17,1.02-.91,1.62Z"/><path class="d" d="M722.39,415.1c.8,3.59,1.39,7.24,1.83,10.92.07.69.56,1.01,1.5.91l2.03-.22c.94-.1,1.35-.54,1.28-1.25-.1-1.4-.37-2.78-.57-4.16-.24-1.38-.36-2.78-.69-4.14l6.06-1.15c.45,2.13.68,4.31,1.06,6.46.22,1.24,1.09,1.96,2.62,1.78l.15-.02c1.48-.17,2.33-1.13,2.11-2.43-.38-2.24-.63-4.5-1.1-6.72l5.62-1.07c.37,1.56.52,3.16.79,4.74.24,1.58.53,3.16.65,4.76.08.82.58,1.21,1.52,1.11l2.03-.22c.94-.1,1.35-.61,1.26-1.45-.54-4.54-1.27-9.06-2.27-13.52-.25-1.22-1.22-1.79-2.51-1.49l-21.6,5.07c-1.29.31-1.98,1.11-1.78,2.09Z"/><path class="d" d="M724.52,436.84c-.03,2.57.76,4.52,2.06,5.91,1.29,1.38,3.26,2.18,5.83,2.3l.87.04c2.19.1,3.69-.28,4.78-1.13.54-.42.99-.96,1.35-1.61.33-.65.6-1.4.82-2.26.4-1.6.86-3.22,1.22-4.85.3-1.43.75-2.18,2.23-2.25l.61-.03c2.21-.11,3.12.75,3.17,3.48,0,2.7-.83,3.63-2.88,3.61h-.79c-.57,0-.95.29-.94.83.03,1.17-.01,2.34-.09,3.51-.03.53.34.85.98.88l.83.04c2.46.11,4.3-.48,5.57-1.94,1.26-1.46,1.78-3.79,1.8-7.05-.22-6.28-3.36-9.25-8.48-8.76l-.83.07c-2.23.2-3.67.79-4.62,1.74-1,.96-1.54,2.28-1.88,3.94l-.5,2.36c-.18.78-.41,1.57-.61,2.35-.38,1.39-.83,2.04-2.35,2.03h-.64c-2.19-.02-3.04-.87-3.03-3.32-.07-2.45.71-3.32,2.77-3.43l.87-.04c.61-.03.93-.32.91-.79-.07-1.1-.07-2.22-.19-3.32-.05-.46-.46-.74-1.06-.68l-.98.09c-2.47.22-4.15.97-5.28,2.32-1.15,1.36-1.58,3.29-1.5,5.98Z"/><path class="e" d="M665,488.12l-.85,1.34c-.25.4.1.99.86,1.49l7.89,5.17c-.9,1.43-1.95,2.75-2.87,4.16l-7.59-5.6c-.73-.53-1.39-.65-1.69-.29l-.98,1.24c-.29.37.01.97.72,1.54l18.33,14.67c.71.57,1.41.65,1.8.15l1.3-1.66c.4-.49.15-1.17-.59-1.71l-7.19-5.31c.98-1.49,2.08-2.89,3.04-4.4l7.47,4.9c.76.5,1.48.49,1.81-.05l1.13-1.78c.34-.53.03-1.16-.75-1.63l-20.12-12.1c-.78-.47-1.46-.54-1.71-.15Z"/><path class="e" d="M655.28,500.22c-.91.92-.9,2.3-.22,3.85-.58-.18-1.17-.37-1.77-.59-.98-.34-1.43-.02-1.14.95l.38,1.26c.29.98,1.11,1.82,2.07,2.16l1.34.45,5.27,5.54c2.81,3,5.81,3.37,8.19.79,1.19-1.17,1.63-2.51,1.47-3.79-.16-1.28-.96-2.53-2.36-3.71l-.23-.2c-.4-.34-.74-.42-.94-.19l-1.56,1.83c-.18.22-.08.49.25.8l.2.18c.84.76.87,1.43.12,2.21-.77.8-1.52.72-2.52-.26l-1.84-1.8c.67-.27,1.3-.71,1.89-1.31,2.03-2.22,1.46-4.5-1.45-6.93l-.38-.32c-2.81-2.34-5.24-2.58-6.75-.91ZM660.33,503.82l.28.25c1,.9,1.15,1.74.4,2.52-.38.39-.84.66-1.35.86l-1.22-1.19c-.97-.95-1.25-2.1-.6-2.76.66-.68,1.52-.56,2.49.32Z"/><path class="e" d="M646.63,508.29c-1.09.82-1.61,1.94-1.57,3.31,0,1.31.59,2.88,1.85,4.64l.49.68c.35.49.78.7,1.06.51.6-.38,1.13-.85,1.7-1.28.25-.19.18-.62-.19-1.1l-.37-.48c-.95-1.23-1.07-2.1-.16-2.79.91-.65,1.81-.3,3.1,1.23l3.44,4.13c1.27,1.52,1.55,2.7.52,3.44-1.03.78-1.9.46-2.87-.8l-.28-.36c-.37-.48-.77-.65-1.03-.44-.58.45-1.14.94-1.76,1.33-.29.2-.24.67.11,1.16l.42.58c1.26,1.75,2.61,2.8,4.03,3.14,1.37.29,2.79-.13,4.15-1.17,2.77-2.29,2.52-5.82-.84-9.49l-3.12-3.46c-3.34-3.65-6.51-4.59-8.67-2.79Z"/><path class="e" d="M641.21,512.85l-1.43.89c-.36.22-.31.83.15,1.56l12.35,19.7c.7,1.12,1.66,1.55,2.41,1.08l.99-.61c.75-.48.71-1.57-.03-2.65l-13.08-19.22c-.49-.72-1.02-.99-1.36-.74ZM634.53,516.95c-.26,1.22.31,2.89,1.58,4,1.64,1.41,3.3,2.73,5.03,4.06.24,2.06.46,4.17.61,6.28.06.9.19,1.34.43,1.81.38.73.9,1.06,1.44.75l1.29-.74c.57-.33.66-.85.57-1.76-.22-1.98-.43-3.87-.75-5.86-.16-1.02-.55-1.9-1.02-2.67-.54-.87-1.12-1.53-1.92-2.14-1.62-1.21-3.29-2.58-4.85-3.89-1.21-1.02-2.19-.94-2.4.16Z"/><path class="e" d="M629.32,518.9c-1.21.51-1.73,1.85-1.74,3.51l-1.43-1.24c-.77-.68-1.32-.55-1.43.47l-.15,1.32c-.12,1.03.31,2.12,1.08,2.79l1.07.92,2.72,7.15c.73,1.93,1.72,3.25,2.97,3.92.62.34,1.3.51,2.04.53.72-.02,1.48-.22,2.29-.58,3.14-1.31,3.8-4.07,2.14-7.3l-.14-.27c-.24-.47-.51-.67-.79-.53-.73.35-1.43.78-2.18,1.08-.27.11-.28.41-.09.82l.11.24c.48,1.03.24,1.67-.76,2.11-1.02.46-1.69.1-2.24-1.19l-1-2.37c.73,0,1.49-.18,2.27-.52,1.41-.58,2.19-1.52,2.4-2.69.22-1.17-.13-2.58-1-4.28l-.22-.44c-.83-1.62-1.8-2.72-2.81-3.29-1.01-.56-2.04-.58-3.12-.15ZM632.6,524.17l.16.34c.56,1.2.38,2.06-.62,2.5-.5.22-1.04.3-1.59.31l-.66-1.57c-.53-1.26-.33-2.44.53-2.82.88-.39,1.63.03,2.19,1.23Z"/><path class="e" d="M618.83,523.33l-1.37.38c-.35.1-.43.56-.23,1.29l.65,2.38c.17.62.48.92.8.83l.84-.24c.53-.14.83.17,1.13,1.15l2.49,8.34-1.75.48c-.35.1-.48.57-.33,1.12l.67,2.45c.15.55.51.88.87.77l1.85-.51.87,2.9c.37,1.26,1.12,1.93,1.9,1.65l1.22-.42c.78-.26,1.02-1.18.59-2.43l-.97-2.87,1.17-.38c.36-.12.47-.59.28-1.12l-.86-2.39c-.19-.53-.57-.85-.92-.74l-1.12.37-2.91-8.57c-1.32-3.86-2.62-5.1-4.86-4.44Z"/><path class="e" d="M614.75,524.42l-1.65.38c-.41.1-.58.69-.4,1.54l2.19,10.29c.42,1.96.04,3.22-1.16,3.4-1.19.2-2.01-.76-2.35-2.74l-1.8-10.37c-.15-.86-.51-1.33-.94-1.25-.55.12-1.1.21-1.66.26-.44.05-.64.61-.52,1.47l1.43,10.5c.63,4.88,2.87,7.48,5.67,6.91,1.22-.23,2.13-.91,2.6-2.19l1.37,6.44c.27,1.3,1.02,2.01,1.9,1.81l1.14-.26c.87-.2,1.23-1.17.9-2.45l-5.69-22.54c-.21-.84-.63-1.3-1.04-1.21Z"/><path class="e" d="M599.53,526.24c-1.5.01-2.67.75-3.5,2.11-.83,1.36-1.32,3.25-1.33,5.82v4.51c-.03,2.52.5,4.55,1.53,5.83,1.02,1.28,2.55,1.91,4.42,1.88,3.72-.32,5.65-3.2,5.04-8.3l-.5-4.48c-.6-5.02-2.71-7.65-5.65-7.37ZM599.77,530.62c1.16-.09,1.82.86,1.97,2.79l.41,5.47c.14,1.88-.44,2.97-1.74,3.07-1.33.02-2.05-.97-2.11-2.87l-.19-5.49c-.06-1.93.51-2.97,1.66-2.99Z"/><path class="e" d="M591.75,526.75c-.56,0-1.12-.09-1.68-.12-.44-.03-.75.48-.81,1.35l-.71,10.5c-.13,2-.84,3.05-2.06,2.99-1.19-.07-1.69-1.3-1.48-3.28l1.09-10.47c.09-.87-.13-1.43-.57-1.48l-1.68-.19c-.44-.04-.79.46-.91,1.32l-1.49,10.5c-.72,4.87.82,7.83,3.85,8.22,1.63.12,2.96-.73,3.81-2.41l1.01,1.9c.52.98,1.28.99,1.87.09l.76-1.13c.58-.86.55-2.07.02-2.99l-.71-1.29.37-12.11c.03-.87-.23-1.4-.67-1.4Z"/><path class="d" d="M780.03,560.21l-1.66,2.62c-.74,1.16-.77,1.99-.07,2.94,1.09,1.53,2.17,3.08,3.21,4.62-2.26,3.2-4.45,6.45-6.82,9.58l-5.4-1.56c-1.12-.34-1.89-.04-2.74,1.05l-2.23,2.84c-.87,1.13-.91,2.02-.21,2.6.29.24.74.41,1.56.69,7.15,2.22,14.42,4.19,21.86,5.95,2.03.48,3.39,0,4.96-2.26l3.33-4.72c1.57-2.25,1.7-3.62.57-5.39-4.11-6.47-8.38-12.73-12.81-18.76-.51-.68-.82-1.04-1.14-1.24-.78-.47-1.64-.16-2.4,1.04ZM784.49,574.59c2.09,3.12,4.14,6.28,6.14,9.5-3.69-.83-7.35-1.72-10.97-2.67l4.82-6.84Z"/><path class="d" d="M758.37,589.27c-.95,1.08-1.88,2.19-2.89,3.22-.84.89-.96,1.89-.3,2.51l17.11,16.07c.66.62,1.73.38,2.68-.62,1.13-1.16,2.18-2.4,3.24-3.61.9-1.04,1.04-2.13.36-2.72l-17.72-15.4c-.69-.6-1.68-.38-2.48.55Z"/><path class="d" d="M740.33,537.97l-1.83,2.88c-.55.79-.42,1.65.33,2.17l19.4,13.22c.75.51,1.68.25,2.31-.67l2.12-3.33c.6-.94.48-1.89-.29-2.37l-19.9-12.46c-.77-.48-1.63-.26-2.14.56Z"/><path class="d" d="M733.25,548.26l-1.78,2.28c-.59.76-.52,1.59.19,2.15l12.18,9.62c-5.82-.6-11.66-1.54-17.33-2.66-1.67-.33-2.48-.14-3.53,1.07l-1.66,1.75c-1.05,1.1-1.09,2.4-.06,3.4l16.38,15.75c.65.63,1.55.52,2.32-.29l2.3-2.42c.75-.82.77-1.74.1-2.34l-11.45-10.26c5.61,1.06,11.47,2,17.31,2.62,1.74.17,2.62-.15,3.76-1.61l1.8-2.31c1.13-1.42,1.03-2.82-.13-3.67l-18.32-13.44c-.74-.54-1.51-.36-2.09.36Z"/><path class="d" d="M714.41,569.46l-2.45,2.32c-.73.69-.79,1.58-.19,2.25l5.85,6.5c-2.27,1.95-4.53,3.92-6.83,5.84-1.37,1.07-1.71,2.44-.75,3.66l.09.12c.93,1.19,2.37,1.18,3.79.07,2.36-1.97,4.68-3.99,7.01-6l4.25,4.73-4.65,4-2.33,1.99-2.41,1.89c-.89.69-1.02,1.42-.46,2.13l1.3,1.68c.58.75,1.3.77,2.21.05,2.34-1.76,4.54-3.7,6.77-5.6,1.11-.96,2.23-1.9,3.32-2.88l3.2-3.02c1.18-1.12,1.34-2.42.41-3.37l-15.91-16.37c-.63-.65-1.49-.67-2.22.02Z"/><path class="d" d="M696.88,584.1l-2.79,1.96c-.79.55-.97,1.42-.46,2.17l13.24,19.39c.51.75,1.46.83,2.37.19l3.22-2.27c.91-.64,1.15-1.56.61-2.3l-13.97-18.86c-.54-.72-1.42-.83-2.21-.28Z"/><path class="d" d="M686.52,591.05l-2.45,1.54c-.84.47-1.07,1.26-.62,2.05l7.84,13.4c-5.27-2.81-10.26-5.61-15.16-8.79-1.44-.93-2.27-1.06-3.71-.34l-2.15,1.08c-1.35.7-1.89,1.82-1.28,3.15l9.55,20.61c.38.82,1.25,1.06,2.27.6l2.98-1.49c.99-.5,1.36-1.32.95-2.13l-6.94-13.71c2.44,1.54,4.94,3.08,7.47,4.54,2.51,1.43,5.08,2.83,7.69,4.2,1.57.81,2.5.84,4.11-.07.85-.47,1.66-1.02,2.49-1.52,1.53-.96,1.97-2.27,1.19-3.48l-12.15-19.19c-.49-.77-1.3-.93-2.08-.43Z"/><path class="d" d="M661.15,604.06l-3.18,1.24c-.9.35-1.28,1.15-.96,2l8.3,21.96c.32.85,1.22,1.15,2.26.75l3.66-1.43c1.04-.39,1.47-1.28,1.12-2.11l-9.14-21.62c-.36-.85-1.17-1.11-2.07-.77Z"/><path class="d" d="M644.23,610l-3.24.91c-.96.27-1.39,1.02-1.16,1.9l5.13,19.4c-2.28.67-4.62,1.12-6.93,1.68-1.05.24-1.52.85-1.33,1.74l.45,2.07c.2.93.88,1.24,1.97.99l5.41-1.25,5.35-1.49c3.58-.95,7.08-2.15,10.59-3.33,1.05-.35,1.47-.97,1.15-1.87l-.71-2c-.31-.86-1.03-1.13-2.05-.79-2.24.75-4.48,1.51-6.73,2.22l-5.86-19.19c-.27-.87-1.06-1.27-2.03-1Z"/><path class="d" d="M697.97,518.73c-1.34,2.03-2.08,3.92-1.83,5.87.23,1.92,1.31,3.81,3.31,5.45l3.84,3.14c.91.74,1.65.71,2.26-.06,1.28-1.7,2.69-3.31,3.88-5.08.53-.75.32-1.58-.51-2.17l-1.27-.9c-.8-.57-1.64-.5-2.14.22-.5.75-1.03,1.47-1.6,2.16l-1.42-1.07c-1.88-1.43-2.08-2.84-.75-4.81,1.37-1.96,3.34-2.18,5.61-.66l8.13,5.48c2.2,1.48,2.56,3.39,1.02,5.58-1.51,2.21-3.11,2.4-4.91,1.03l-.36-.27c-.45-.34-.91-.31-1.22.09l-2.31,2.96c-.29.37-.2.88.24,1.23l.41.34c2.01,1.64,4.07,2.23,6.12,1.77,2.03-.47,4.16-1.88,5.86-4.41,1.83-2.59,2.62-5.13,2.19-7.46-.39-2.31-1.86-4.29-4.37-5.84l-7.69-4.76c-2.51-1.55-4.91-2.05-7-1.63-2.05.45-3.95,1.69-5.46,3.82Z"/><path class="d" d="M691.55,527.62l-1.17,1.36c-.52.6-.47,1.19.18,2.11l3.02,4.41c-1.64,1.64-3.15,3.41-4.85,4.98l-4.49-2.94c-.93-.63-1.52-.65-2.09-.1l-1.51,1.45c-.62.55-.56,1.23.04,1.91.25.28.62.57,1.29,1.04,5.89,4.12,11.87,7.93,18.11,11.63,1.71,1.02,2.76,1.02,3.98-.2l2.49-2.61c1.19-1.24,1.21-2.25.15-3.93-3.84-6.13-7.91-12.1-12.13-17.84-.49-.65-.78-1.01-1.07-1.25-.7-.58-1.4-.64-1.94-.02ZM696.39,539.58c1.97,3,3.9,6.04,5.78,9.13-3.13-1.79-6.2-3.6-9.26-5.51l3.48-3.62Z"/><path class="d" d="M676.74,542.22c-.52.46-1.04.91-1.59,1.31-.56.43-.56,1.15,0,1.86l9.91,12.54c-2.92-1.52-5.77-3.1-8.55-4.72-1.02-.58-1.62-.67-2.21-.26-.69.48-.75,1.03-.51,2.2.7,3.19,1.34,6.44,1.9,9.73l-8.9-13.36c-.5-.76-1.2-.99-1.8-.62l-1.73,1.09c-.6.38-.67,1.1-.2,1.87l11.94,19.33c.73,1.19,1.94,1.51,3.09.78l1.81-1.14c1.28-.79,1.49-1.44,1.22-3.02-.56-3.32-1.19-6.6-1.89-9.82,2.89,1.73,5.76,3.28,8.74,4.84,1.41.73,2.07.7,3.25-.22.6-.48,1.24-.92,1.82-1.44,1.06-.91,1.09-2.14.18-3.21l-14.69-17.33c-.59-.69-1.29-.84-1.8-.39Z"/><path class="d" d="M657.17,555.6c-1.63.99-3.37,1.79-5.07,2.66-.86.42-1.69.89-2.56,1.27l-2.62,1.16c-.65.29-.82.86-.44,1.73l.81,1.88c.38.87.92,1.12,1.59.82,1.3-.61,2.65-1.12,3.93-1.79l3.85-1.94,2.86,5.47c-2.01.97-3.95,2.07-6,2.95-1.17.52-1.58,1.65-.97,3.04l.06.14c.61,1.39,1.76,1.83,2.98,1.29,2.12-.92,4.13-2.05,6.21-3.06l2.65,5.07-4.34,2.19c-1.44.75-2.95,1.34-4.43,2.02-.76.34-.99.94-.61,1.81l.81,1.88c.37.87.98,1.1,1.76.75l3.16-1.4c1.05-.47,2.06-1.03,3.1-1.53,2.05-1.05,4.14-2.03,6.12-3.21,1.09-.62,1.36-1.73.7-2.88l-11.02-19.26c-.66-1.15-1.64-1.55-2.54-1.04Z"/><path class="d" d="M636.41,564.33c-1.25.41-2.29.95-3.13,1.61-.84.66-1.52,1.34-1.98,2.19-.93,1.68-1.09,3.81-.42,6.29l.23.84c1.14,4.22,3.35,5.24,6.96,5.08l5.04-.37c1.5-.07,2.34.07,2.86,1.47l.21.57c.78,2.1.22,3.2-2.4,4.05-2.58.86-3.72.37-4.33-1.58l-.24-.76c-.17-.54-.57-.81-1.08-.63l-3.41.96c-.52.15-.71.59-.54,1.21l.22.8c.65,2.37,1.78,3.93,3.56,4.67.89.36,1.95.56,3.16.47,1.21-.1,2.59-.41,4.14-.92,3-.94,4.94-2.59,5.92-4.39.98-1.84.95-3.96-.03-6.33l-.32-.77c-1.71-4.12-4.03-4.86-7.45-4.46-1.62.21-3.29.24-4.9.37-1.45.09-2.22-.13-2.67-1.58l-.19-.61c-.65-2.1-.09-3.17,2.28-3.96,2.38-.76,3.47-.3,4.18,1.62l.3.82c.21.57.59.78,1.04.61l3.16-1.22c.44-.17.59-.63.36-1.19l-.38-.91c-.94-2.27-2.21-3.73-3.85-4.37-1.66-.68-3.65-.37-6.29.43Z"/><path class="e" d="M571.98,523.6l-1.62-.42c-.47-.17-.96.31-1.22,1.18l-2.78,9.01-2.52-.82-1.27-.39-1.25-.49,3.25-8.85c.31-.85.22-1.54-.25-1.72l-1.6-.6c-.48-.17-.99.28-1.34,1.13l-8.87,21.73c-.34.84-.21,1.54.41,1.77l2.05.78c.61.23,1.21-.18,1.52-1.04l3.08-8.39,1.31.51,1.33.42,2.65.87-2.64,8.54c-.27.87-.05,1.58.56,1.79l2.09.56c.62.17,1.15-.32,1.39-1.19l6.09-22.67c.23-.88.1-1.54-.37-1.67Z"/><path class="e" d="M556.5,517.23c-1.28-.65-2.69-.29-4.04.79l-.04-1.92c-.01-1.06-.52-1.44-1.41-.9l-1.16.7c-.9.54-1.45,1.57-1.44,2.62l.03,1.45-3.73,6.68c-2.02,3.57-1.36,6.65,2,8.25,1.59.82,3.03.98,4.27.43,1.23-.51,2.22-1.63,2.96-3.31l.12-.28c.21-.49.19-.83-.11-.96-.78-.36-1.58-.65-2.35-1.04-.27-.14-.51.03-.71.44l-.11.24c-.49,1.03-1.15,1.23-2.19.71-1.06-.53-1.24-1.29-.6-2.54l1.18-2.29c.51.59,1.17,1.08,1.98,1.5,1.43.78,2.72.78,3.8.22,1.08-.56,1.97-1.71,2.73-3.47l.2-.45c.72-1.67.93-3.13.68-4.29-.25-1.16-.96-1.98-2.07-2.59ZM554.59,523.14l-.16.34c-.57,1.2-1.38,1.59-2.43,1.05-.53-.26-.97-.65-1.35-1.09l.78-1.51c.63-1.21,1.7-1.78,2.61-1.32.93.47,1.11,1.34.55,2.53Z"/><path class="e" d="M545.62,511.05c-.57-.3-1.09-.57-1.65-.66-.56-.09-1.16-.02-1.77.2-1.23.45-2.56,1.51-3.86,3.22l-.5.66c-.37.48-.44.94-.18,1.13l1.62,1.2c.24.18.61,0,.96-.51l.35-.5c.91-1.3,1.61-1.57,2.55-1.05.9.55.76,1.59-.3,3.25l-2.91,4.52c-1.08,1.69-2.05,2.23-3.09,1.6-1.08-.62-.94-1.65-.04-2.92l.26-.37c.35-.5.4-.93.15-1.12l-1.7-1.25c-.27-.19-.71,0-1.07.49l-.44.57c-1.31,1.72-1.91,3.29-1.83,4.7.04.7.24,1.36.6,1.98.36.61.86,1.2,1.58,1.61,2.96,1.83,6.05.62,8.68-3.73l2.37-4.01c2.34-4.25,2.49-7.64.22-9.01Z"/><path class="e" d="M540.02,507.43l-1.22-1.03c-.31-.25-.87-.02-1.44.64l-15.24,17.55c-.87,1-1,2.02-.33,2.57l.87.73c.66.56,1.64.25,2.47-.79l14.53-18.14c.54-.68.67-1.27.37-1.53ZM534.32,502.44c-1.24.12-2.68,1.12-3.38,2.68-.87,1.98-1.66,3.92-2.44,5.95-1.9.84-3.85,1.68-5.82,2.45-.84.31-1.23.56-1.61.93-.59.57-.75,1.19-.3,1.59l1.08.99c.48.44,1,.37,1.84.01,1.82-.78,3.6-1.59,5.34-2.42.9-.42,1.64-1.09,2.24-1.76.68-.77,1.13-1.49,1.51-2.46.76-1.96,1.55-3.89,2.37-5.77.63-1.44.28-2.33-.83-2.2Z"/><path class="e" d="M530.86,497.97c-.88-1.09-2.3-1.29-3.94-.82l.69-1.74c.37-.91.07-1.51-.96-1.36l-1.33.18c-1.03.14-1.95.88-2.34,1.86l-.54,1.36-6.03,4.71c-1.62,1.26-2.59,2.66-2.83,4.09-.22,1.38.27,2.82,1.45,4.22,1.1,1.4,2.42,1.95,3.72,1.94,1.31-.02,2.64-.67,3.96-1.94l.22-.21c.38-.37.5-.69.28-.92l-1.71-1.78c-.2-.21-.5-.13-.84.17l-.2.18c-.85.76-1.53.69-2.26-.19-.75-.9-.61-1.67.47-2.56l1.97-1.65c.22.73.62,1.45,1.19,2.14,2.1,2.34,4.43,2,7.16-.63l.35-.34c2.61-2.56,3.09-4.96,1.49-6.71ZM526.8,502.65l-.28.25c-.99.9-1.89.97-2.62.07-.37-.45-.61-.97-.78-1.52l1.31-1.09c1.05-.87,2.24-.99,2.87-.22.64.8.47,1.65-.5,2.52Z"/><path class="e" d="M522.8,488.22l-.95-1.38c-.25-.35-.73-.31-1.36.1l-2.06,1.35c-.54.35-.71.77-.49,1.08l.58.83c.36.52.18.93-.66,1.51l-7.19,4.92-1.16-1.68c-.23-.33-.74-.34-1.22-.03l-2.12,1.39c-.48.31-.66.78-.42,1.12l1.21,1.76-2.5,1.71c-1.09.75-1.43,1.67-.92,2.42l.79,1.18c.51.74,1.51.68,2.57-.1l2.45-1.79.81,1.05c.25.32.75.3,1.2-.05l2.02-1.53c.45-.34.62-.81.38-1.12l-.78-1.01,7.3-5.34c1.63-1.2,2.64-2.23,3.04-3.22.41-1.02.24-2.05-.54-3.19Z"/><path class="e" d="M520.02,483.97l-1.11-1.78c-.28-.44-.93-.47-1.67-.03l-9.04,5.39c-1.72,1.03-3.07.99-3.77-.31-.71-1.28-.13-2.48,1.62-3.46l9.18-5.15c.76-.43,1.05-.99.77-1.49l-1.08-1.91c-.27-.54-.91-.62-1.68-.21l-9.38,4.95c-2.17,1.14-3.64,2.56-4.34,4.04-.68,1.46-.61,3.01.21,4.47.73,1.27,1.78,2.1,3.18,2.21l-5.66,3.37c-1.14.68-1.54,1.68-1.01,2.53l.69,1.12c.53.85,1.6.95,2.72.23l19.62-12.46c.73-.47,1-1.06.72-1.5Z"/><path class="e" d="M510.76,465.77c-.45-.96-1.02-1.76-1.69-2.38-.65-.66-1.4-1.16-2.25-1.46-1.69-.6-3.77-.46-6.12.55l-4.14,1.78c-2.33,1-3.85,2.42-4.55,4.17-.35.87-.49,1.83-.42,2.83.09.97.38,2.01.88,3.07,1.95,4.29,5.72,5.39,10.22,3.08l4.01-2.04c4.55-2.36,5.82-5.68,4.05-9.59ZM506.77,467.63c.69,1.46.1,2.64-1.63,3.48l-4.95,2.38c-1.71.82-2.99.49-3.7-1.03-.73-1.55-.17-2.77,1.55-3.54l5-2.26c1.76-.79,3.05-.46,3.73.98Z"/><path class="e" d="M505.76,455.49l-.95-2.39c-.25-.63-.9-.82-1.71-.5l-9.8,3.84c-1.87.73-3.21.33-3.83-1.21-.58-1.55.16-2.75,2.04-3.45l9.86-3.68c.82-.31,1.17-.89.92-1.55l-.92-2.49c-.24-.66-.89-.88-1.71-.59l-9.99,3.56c-4.64,1.64-6.37,5.04-4.96,8.89.77,2.06,2.26,3.25,4.24,3.55l-1.14,2.05c-.56,1.04-.24,1.98.88,2.33l1.43.44c1.1.34,2.19-.19,2.74-1.21l.8-1.41,11.2-4.62c.81-.33,1.14-.92.9-1.55Z"/><path class="d" d="M534.41,654.06l-2.95-.82c-1.29-.41-2.08-.23-2.79.7l-3.52,4.36-5.49-1.8c-1.83-.6-3.61-1.33-5.41-2v-5.59c.02-1.17-.48-1.81-1.74-2.29-1.1-.43-2.22-.83-3.29-1.32-1.28-.55-2.14-.31-2.5.52-.15.35-.19.83-.22,1.68-.2,7.55-.06,15.01.29,22.59.08,2.1.94-30.08,3.45-29.13,1.75.68,3.55,1.25,5.34,1.85,2.56.84,3.89.55,5.26-1.03,2.5-2.85,4.93,27.53,7.32,24.61,2.4-2.94,4.74-5.9,7.02-8.89.51-.69.77-1.08.87-1.45.24-.88-.29-1.61-1.65-1.98ZM521.97,662.35c-2.39,2.9-4.85,5.77-7.35,8.62-.22-3.73-.32-7.56-.4-11.31,2.54,1,5.15,1.84,7.75,2.69Z"/><path class="d" d="M501.02,641.69c-1.3-.55-2.54-1.2-3.8-1.82-1.06-.53-2.04-.34-2.45.47l-10.41,21.04c-.4.81.12,1.75,1.3,2.34,1.41.69,2.79,1.41,4.24,2.03,1.22.54,2.28.35,2.65-.48l9.67-21.39c.37-.83-.11-1.7-1.2-2.19Z"/><path class="d" d="M544.82,609.81l-3.24-1.04c-.91-.3-1.71.08-1.99.94l-7.3,22.31c-.28.86.23,1.67,1.28,2.01l3.72,1.19c1.07.29,1.94-.09,2.19-.97l6.48-22.56c.25-.87-.2-1.62-1.13-1.88Z"/><path class="d" d="M533.02,605.81l-2.69-1.03c-.9-.34-1.67-.03-2.01.81l-5.78,14.41c-1.03-5.76-1.75-11.66-2.32-17.35-.15-1.7-.6-2.36-2.02-3.09l-2.15-1.07c-1.36-.68-2.61-.33-3.26.95l-10.28,20.26c-.41.81-.06,1.62.92,2.11l2.94,1.46c.98.49,1.83.28,2.22-.55l6.52-13.92c.58,5.68,1.36,11.44,2.35,17.29.3,1.76.86,2.47,2.57,3.13l2.7,1.03c1.67.64,2.96.19,3.45-1.16l7.77-21.35c.31-.85-.06-1.6-.92-1.93Z"/><path class="d" d="M507.39,593.95l-2.92-1.65c-.87-.49-1.73-.28-2.2.5l-4.45,7.53c-2.56-1.54-5.08-3.21-7.62-4.82-1.47-.95-2.9-.83-3.78.44l-.09.12c-.86,1.25-.39,2.59,1.13,3.57,2.61,1.66,5.21,3.38,7.84,4.96l-3.24,5.48c-3.48-2.12-6.95-4.4-10.41-6.62-.94-.64-1.65-.58-2.18.17l-1.21,1.74c-.54.77-.36,1.49.61,2.15,4.96,3.18,9.96,6.54,14.96,9.21,1.39.78,2.66.54,3.29-.63l10.94-20.04c.43-.8.2-1.62-.67-2.11Z"/><path class="d" d="M488.21,581.54l-2.76-2.03c-.75-.6-1.62-.55-2.19.16l-14.65,18.34c-.57.71-.38,1.67.5,2.37l3.2,2.37c.91.67,1.87.62,2.41-.11l13.89-18.92c.54-.73.38-1.6-.4-2.17Z"/><path class="d" d="M478.47,573.69c-.76-.6-1.46-1.27-2.15-1.93-.7-.66-1.52-.66-2.14,0l-10.54,11.4c.56-2.92,1.16-5.79,1.82-8.62.65-2.83,1.34-5.61,2.17-8.43.47-1.65.36-2.49-.74-3.65l-1.65-1.75c-1.04-1.11-2.35-1.23-3.43-.27l-16.95,15.13c-.68.6-.63,1.49.13,2.3l2.28,2.42c.76.81,1.65.92,2.3.29l11.11-10.62c-.77,2.78-1.54,5.63-2.2,8.47-.63,2.82-1.22,5.68-1.77,8.58-.31,1.74-.07,2.64,1.28,3.91.72.66,1.41,1.35,2.15,1.99,1.39,1.18,2.78,1.21,3.72.11l14.81-17.22c.59-.69.5-1.51-.21-2.1Z"/><path class="d" d="M458.7,553.18c-.72-.88-1.49-1.71-2.16-2.63-.58-.76-1.44-.9-2.16-.34l-18.52,14.42c-.72.56-.76,1.51-.1,2.37.76,1.03,1.64,2,2.46,3,.71.84,1.64,1.01,2.34.43l18-15.06c.7-.58.75-1.46.13-2.2Z"/><path class="d" d="M448.03,538.89l-1.89-2.76c-.57-.82-1.4-.99-2.15-.5l-16.85,10.9-3.62-5.84c-.55-.89-1.27-1.12-2.05-.65l-1.82,1.09c-.81.49-.9,1.21-.34,2.12,3.66,6.06,7.66,12.02,11.95,17.84.66.87,1.37,1.07,2.13.5l1.7-1.27c.73-.55.77-1.3.13-2.15-1.43-1.84-2.73-3.73-4.02-5.63l16.5-11.42c.75-.52.89-1.39.32-2.21Z"/><path class="d" d="M438.4,523.42c-1.23-2.24-2.56-4.43-3.7-6.71l-3.49-6.8c-.44-.84-1.04-1.11-1.9-.7l-1.84.89c-.85.41-1.06,1.09-.61,1.95,1.75,3.34,3.37,6.73,5.22,10.03l-5.42,2.96c-1.44-2.49-2.64-5.06-3.97-7.59-.75-1.46-2.02-2.03-3.37-1.36l-.14.07c-1.36.67-1.64,2.02-.88,3.52,1.35,2.57,2.58,5.18,4.05,7.72l-5.02,2.74c-1.98-3.52-3.7-7.1-5.55-10.65-.48-.91-1.09-1.21-1.95-.8l-1.84.89c-.84.41-1.04,1.12-.56,2.05l3.83,7.47c1.26,2.49,2.73,4.95,4.09,7.42.75,1.34,1.95,1.76,3.09,1.09l19.19-11.14c1.15-.67,1.44-1.84.76-3.05Z"/><path class="d" d="M551.48,563.74c-4.62-1.76-8.55-.21-10.57,4.5l-1.92,4.57c-.45,1.07-.22,1.83.7,2.2l6.05,2.31c.86.35,1.62-.12,1.95-1.08l.51-1.47c.32-.94,0-1.68-.83-2.02l-2.55-.98.63-1.66c.84-2.2,2.18-2.85,4.44-1.99,2.32.74,3.1,2.55,2.27,5.15l-3.01,9.33c-.81,2.53-2.56,3.42-5.13,2.59-2.53-.94-3.18-2.38-2.37-4.5l.16-.42c.2-.53.04-.96-.44-1.14-1.18-.46-2.37-.88-3.55-1.36-.44-.19-.89.02-1.11.54l-.2.49c-2.06,4.82.2,8.66,5.96,10.83,3.03.98,5.72.99,7.81.03,2.11-1.01,3.63-3.01,4.43-5.85l2.45-8.71c.8-2.85.59-5.25-.4-7.16-.99-1.96-2.76-3.4-5.3-4.21Z"/><path class="d" d="M540.9,559.96l-1.69-.74c-.75-.31-1.31-.13-2,.75l-3.38,4.15-3.19-1.59c-1.07-.52-2.13-1.05-3.16-1.66l1.45-5.18c.32-1.08.15-1.66-.57-2.06l-1.89-1.06c-.76-.41-1.39-.15-1.85.63-.19.32-.36.76-.61,1.54-2.08,6.81-3.93,13.74-5.59,20.79-.47,1.95-.14,2.94,1.38,3.76l3.25,1.62c1.55.77,2.52.5,3.83-1,4.73-5.35,9.35-11.04,13.68-16.7.49-.65.75-1.03.9-1.38.36-.83.2-1.53-.57-1.86ZM530.72,567.98c-2.31,2.75-4.67,5.48-7.09,8.18.79-3.53,1.61-6.98,2.51-10.49,1.51.81,3.05,1.53,4.57,2.31Z"/><path class="d" d="M522.18,549.84l-1.71-1.09c-.59-.37-1.28-.13-1.79.62l-9.03,13.18c.6-3.24,1.31-6.47,2.06-9.61.27-1.16.17-1.75-.4-2.17-.67-.49-1.22-.37-2.26.22-2.88,1.69-5.71,3.15-8.67,4.63l10.17-12.42c.57-.7.6-1.42.07-1.87l-1.54-1.28c-.54-.44-1.25-.3-1.85.39l-15.02,17.05c-.93,1.05-.87,2.28.17,3.15l1.64,1.37c1.15.96,1.77,1.04,3.21.32,2.95-1.44,5.96-3.11,8.83-4.74-.77,3.21-1.46,6.47-2.08,9.79-.28,1.55-.11,2.26,1.16,3.04l1.95,1.24c1.17.75,2.34.42,3.09-.76l12.14-19.2c.48-.77.42-1.48-.14-1.84Z"/><path class="d" d="M503.89,535.3c-1.42-1.24-2.69-2.7-4.01-4.09-1.31-1.4-2.67-2.74-3.88-4.28-.46-.55-1.06-.56-1.79.05l-1.56,1.32c-.72.61-.81,1.22-.32,1.79l1.41,1.68,1.49,1.57,2.97,3.16-4.41,4.32-4.6-4.88c-.84-.99-2.04-1.07-3.19-.08l-.11.1c-1.14.99-1.25,2.24-.37,3.26l4.76,5.05-4.08,4-3.34-3.55-1.67-1.77-1.58-1.87c-.54-.64-1.18-.69-1.9-.08l-1.56,1.32c-.72.61-.77,1.26-.21,1.92,1.45,1.81,3.07,3.45,4.65,5.14,1.59,1.67,3.13,3.4,4.84,4.93.91.86,2.05.79,2.96-.17l15.23-16.14c.91-.97,1.01-2.02.26-2.72Z"/><path class="d" d="M489.23,517.72c-3.19-4.41-7.17-5.32-11.51-2.48l-.73.48c-3.68,2.4-3.85,4.82-2.58,8.3.57,1.65,1.25,3.2,1.93,4.78.58,1.39.64,2.29-.53,3.19l-.48.37c-1.77,1.36-2.95,1.12-4.64-1.11-.85-1.08-1.21-1.97-1.15-2.73.05-.75.51-1.36,1.34-1.95l.65-.46c.46-.33.6-.8.29-1.26l-2.05-3c-.31-.46-.8-.5-1.34-.15l-.7.46c-2.06,1.35-3.18,2.92-3.3,4.84-.06.96.12,2.02.55,3.17.43,1.16,1.1,2.43,2.12,3.73,1.91,2.52,3.94,4.01,5.96,4.43,2.09.37,4.14-.3,6.11-1.93l.64-.53c3.45-2.86,3.35-5.19,2.01-8.49l-1.94-4.62c-.53-1.41-.53-2.25.7-3.12l.53-.37c.9-.63,1.65-.88,2.35-.7.69.19,1.37.78,2.16,1.8,1.56,2.05,1.4,3.29-.22,4.54l-.69.53c-.48.37-.57.81-.28,1.2.69.93,1.38,1.86,2.14,2.71.31.37.81.37,1.28-.01l.76-.63c1.9-1.57,2.89-3.19,2.96-4.94.11-1.8-.64-3.8-2.38-6.06Z"/></g></svg>